<svg width="20" height="19" viewBox="0 0 20 19" fill="none" xmlns="http://www.w3.org/2000/svg">
<path d="M6.89879 18.7712C7.7808 18.7712 8.49581 18.0562 8.49581 17.1742C8.49581 16.2922 7.7808 15.5771 6.89879 15.5771C6.01677 15.5771 5.30176 16.2922 5.30176 17.1742C5.30176 18.0562 6.01677 18.7712 6.89879 18.7712Z" fill="white"/>
<path d="M15.2025 18.7712C16.0845 18.7712 16.7995 18.0562 16.7995 17.1742C16.7995 16.2922 16.0845 15.5771 15.2025 15.5771C14.3205 15.5771 13.6055 16.2922 13.6055 17.1742C13.6055 18.0562 14.3205 18.7712 15.2025 18.7712Z" fill="white"/>
<path d="M19.4194 2.41107C19.3599 2.33376 19.2835 2.27111 19.196 2.22793C19.1085 2.18474 19.0123 2.16216 18.9148 2.16193H4.15822L3.87075 1.24843C3.83917 1.15035 3.78434 1.06136 3.71092 0.989054C3.63751 0.916751 3.54769 0.86328 3.44914 0.833203L0.83001 0.0283015C0.749476 0.00355403 0.664856 -0.00508887 0.580982 0.00286655C0.497107 0.010822 0.415621 0.0352198 0.341175 0.074667C0.190826 0.154334 0.0782822 0.290465 0.0283023 0.453111C-0.0216775 0.615757 -0.00499928 0.791596 0.0746679 0.941946C0.154335 1.0923 0.290466 1.20484 0.453112 1.25482L2.74644 1.95751L5.6722 11.2011L4.63094 12.0571L4.54789 12.1402C4.29039 12.4383 4.14449 12.8167 4.13517 13.2106C4.12585 13.6045 4.25368 13.9893 4.49679 14.2993C4.6709 14.5111 4.89215 14.6791 5.14284 14.7901C5.39353 14.901 5.6667 14.9517 5.9405 14.9382H16.6023C16.7717 14.9382 16.9342 14.8708 17.054 14.751C17.1738 14.6312 17.2411 14.4688 17.2411 14.2993C17.2411 14.1299 17.1738 13.9674 17.054 13.8476C16.9342 13.7278 16.7717 13.6605 16.6023 13.6605H5.83829C5.76473 13.658 5.69306 13.6366 5.6302 13.5983C5.56735 13.56 5.51543 13.5061 5.47947 13.4419C5.4435 13.3777 5.42471 13.3053 5.4249 13.2317C5.42509 13.1581 5.44426 13.0858 5.48056 13.0217L7.02009 11.7441H16.8769C17.0229 11.7483 17.1659 11.7025 17.2821 11.6142C17.3983 11.5258 17.4808 11.4003 17.5158 11.2586L19.56 2.95406C19.5794 2.85882 19.5768 2.76041 19.5525 2.66631C19.5281 2.57222 19.4826 2.48492 19.4194 2.41107Z" fill="white"/>
</svg>
