<svg width="32" height="32" viewBox="0 0 32 32" fill="none" xmlns="http://www.w3.org/2000/svg">
<path d="M4.00033 23.9997H28.0003C28.3539 23.9997 28.6931 24.1401 28.9431 24.3902C29.1932 24.6402 29.3337 24.9794 29.3337 25.333C29.3337 25.6866 29.1932 26.0258 28.9431 26.2758C28.6931 26.5259 28.3539 26.6663 28.0003 26.6663H4.00033C3.6467 26.6663 3.30756 26.5259 3.05752 26.2758C2.80747 26.0258 2.66699 25.6866 2.66699 25.333C2.66699 24.9794 2.80747 24.6402 3.05752 24.3902C3.30756 24.1401 3.6467 23.9997 4.00033 23.9997ZM5.33366 5.33301H26.667C27.3742 5.33301 28.0525 5.61396 28.5526 6.11406C29.0527 6.61415 29.3337 7.29243 29.3337 7.99967V21.333C29.3337 21.6866 29.1932 22.0258 28.9431 22.2758C28.6931 22.5259 28.3539 22.6663 28.0003 22.6663H4.00033C3.6467 22.6663 3.30756 22.5259 3.05752 22.2758C2.80747 22.0258 2.66699 21.6866 2.66699 21.333V7.99967C2.66699 7.29243 2.94794 6.61415 3.44804 6.11406C3.94814 5.61396 4.62641 5.33301 5.33366 5.33301ZM26.667 19.9997V7.99967H5.33366V19.9997H26.667Z" fill="#3327EC"/>
</svg>
