<svg width="16" height="16" viewBox="0 0 16 16" fill="none" xmlns="http://www.w3.org/2000/svg">
<path d="M1.51107 8.39486H6.51107C6.73208 8.39486 6.94404 8.30706 7.10032 8.15078C7.2566 7.9945 7.3444 7.78254 7.3444 7.56152V0.894857C7.3444 0.673843 7.2566 0.461881 7.10032 0.305601C6.94404 0.149321 6.73208 0.0615234 6.51107 0.0615234H1.51107C1.29005 0.0615234 1.07809 0.149321 0.921812 0.305601C0.765532 0.461881 0.677734 0.673843 0.677734 0.894857V7.56152C0.677734 7.78254 0.765532 7.9945 0.921812 8.15078C1.07809 8.30706 1.29005 8.39486 1.51107 8.39486ZM0.677734 14.2282C0.677734 14.4492 0.765532 14.6612 0.921812 14.8174C1.07809 14.9737 1.29005 15.0615 1.51107 15.0615H6.51107C6.73208 15.0615 6.94404 14.9737 7.10032 14.8174C7.2566 14.6612 7.3444 14.4492 7.3444 14.2282V10.8949C7.3444 10.6738 7.2566 10.4619 7.10032 10.3056C6.94404 10.1493 6.73208 10.0615 6.51107 10.0615H1.51107C1.29005 10.0615 1.07809 10.1493 0.921812 10.3056C0.765532 10.4619 0.677734 10.6738 0.677734 10.8949V14.2282ZM9.01107 14.2282C9.01107 14.4492 9.09887 14.6612 9.25515 14.8174C9.41143 14.9737 9.62339 15.0615 9.8444 15.0615H14.8444C15.0654 15.0615 15.2774 14.9737 15.4337 14.8174C15.5899 14.6612 15.6777 14.4492 15.6777 14.2282V8.39486C15.6777 8.17384 15.5899 7.96188 15.4337 7.8056C15.2774 7.64932 15.0654 7.56152 14.8444 7.56152H9.8444C9.62339 7.56152 9.41143 7.64932 9.25515 7.8056C9.09887 7.96188 9.01107 8.17384 9.01107 8.39486V14.2282ZM9.8444 5.89486H14.8444C15.0654 5.89486 15.2774 5.80706 15.4337 5.65078C15.5899 5.4945 15.6777 5.28254 15.6777 5.06152V0.894857C15.6777 0.673843 15.5899 0.461881 15.4337 0.305601C15.2774 0.149321 15.0654 0.0615234 14.8444 0.0615234H9.8444C9.62339 0.0615234 9.41143 0.149321 9.25515 0.305601C9.09887 0.461881 9.01107 0.673843 9.01107 0.894857V5.06152C9.01107 5.28254 9.09887 5.4945 9.25515 5.65078C9.41143 5.80706 9.62339 5.89486 9.8444 5.89486Z" fill="black"/>
</svg>
