<svg width="6" height="4" viewBox="0 0 6 4" fill="none" xmlns="http://www.w3.org/2000/svg">
<path d="M2.75297 3.8848C2.7805 3.92033 2.81733 3.94938 2.86029 3.96945C2.90325 3.98951 2.95106 4 2.99959 4C3.04813 4 3.09594 3.98951 3.1389 3.96945C3.18186 3.94938 3.21869 3.92033 3.24621 3.8848L5.94642 0.418371C5.97768 0.378389 5.99601 0.331559 5.99942 0.282969C6.00283 0.234379 5.99119 0.185887 5.96577 0.142762C5.94035 0.0996371 5.90212 0.0635285 5.85523 0.0383596C5.80834 0.0131906 5.75458 -7.63531e-05 5.6998 3.30551e-07H0.299382C0.244731 0.000200959 0.191175 0.0136385 0.144474 0.0388678C0.0977731 0.064097 0.059694 0.100164 0.0343318 0.143189C0.00896956 0.186214 -0.00271616 0.23457 0.000531281 0.283056C0.00377872 0.331542 0.0218365 0.378324 0.0527626 0.418371L2.75297 3.8848Z" fill="white"/>
</svg>
