<svg width="32" height="32" viewBox="0 0 32 32" fill="none" xmlns="http://www.w3.org/2000/svg">
<path d="M15.9907 4.00494C16.3058 4.00306 16.4585 4.04625 16.9005 4.2409L19.1804 5.26668C21.3343 6.23994 23.5808 7.26508 25.8731 8.32009L27.1968 8.93096C27.2652 8.96339 27.3107 8.98625 27.3556 9.01083L27.4011 9.03639C27.501 9.09373 27.5871 9.15368 27.6738 9.2377C27.8673 9.42521 28.0029 9.67502 28.0029 10.0021C28.0029 10.3327 27.8639 10.5859 27.6658 10.7736C27.6065 10.8298 27.5477 10.875 27.4849 10.9155L27.3871 10.9736C27.3238 11.0086 27.273 11.0339 27.1815 11.0754L25.5381 11.7943L24.9989 12.0389L24.9999 16.9904C25.0002 17.0629 24.9926 17.135 24.9776 17.2052C24.9548 17.3128 24.9148 17.4135 24.8608 17.5048C24.8594 17.507 24.8583 17.509 24.8571 17.5109C24.8469 17.5283 24.8321 17.5511 24.8164 17.5733C24.8065 17.5875 24.796 17.6016 24.785 17.6155C24.7756 17.6272 24.7663 17.6384 24.7568 17.6494C24.7428 17.666 24.7277 17.6824 24.712 17.6983C24.7032 17.7068 24.6939 17.716 24.6844 17.7249C24.6666 17.742 24.6479 17.7583 24.6285 17.7739C24.6174 17.7827 24.6064 17.7912 24.5951 17.7996C24.5774 17.8128 24.5591 17.8254 24.5402 17.8375C24.5065 17.8593 24.4707 17.8794 24.4336 17.8973L22.0019 19.1139L22.0025 21.1719C23.1135 21.5658 23.9234 22.5957 23.9946 23.8239L23.9996 24.0002L23.9994 26.6057C23.9984 26.7809 23.9927 26.8884 23.9681 27.0179C23.9145 27.3 23.7803 27.5567 23.5233 27.7497C23.312 27.9084 23.1037 27.9678 22.8643 27.9897C22.844 27.9916 22.8252 27.9931 22.8064 27.9944L22.6839 27.9991L19.3927 27.9999C19.2177 27.9989 19.1102 27.9931 18.9807 27.9684C18.6984 27.9146 18.4416 27.7799 18.2489 27.5225C18.0909 27.3113 18.0318 27.1035 18.01 26.8645C18.0045 26.8037 18.0018 26.7556 18.0006 26.6843L17.9996 24.0001C17.9996 22.6928 18.8359 21.5807 20.0027 21.1698L20.0019 20.1139L18.6784 20.777L18.2443 20.9998L17.1649 21.5868L16.9535 21.6964C16.4659 21.9448 16.3382 21.9968 15.9976 21.9962C15.6953 21.9955 15.5611 21.9541 15.1928 21.7692L15.0429 21.693C12.5949 20.4362 10.104 19.1717 7.57002 17.8994C7.52982 17.8803 7.49061 17.8582 7.45315 17.8337L7.55094 17.8898C7.49538 17.8619 7.44354 17.8295 7.39566 17.7933C7.38732 17.7869 7.37914 17.7805 7.37107 17.7739C7.35091 17.7579 7.33135 17.7408 7.31256 17.7231C7.30587 17.7164 7.29916 17.7099 7.29254 17.7032L7.2757 17.6864C7.26268 17.6727 7.25008 17.6587 7.23792 17.6444C7.22987 17.6346 7.22182 17.6248 7.21395 17.6148C7.1996 17.5969 7.18596 17.5782 7.17301 17.5592C7.16527 17.5477 7.15774 17.5362 7.15044 17.5245C7.13983 17.5074 7.12967 17.4899 7.12006 17.4721C7.111 17.4556 7.10265 17.4391 7.09475 17.4223C7.08772 17.407 7.0806 17.3907 7.0739 17.3743C7.06657 17.357 7.06013 17.3399 7.05416 17.3226C7.04645 17.2995 7.03921 17.2757 7.03284 17.2517C7.02991 17.2415 7.02733 17.231 7.02492 17.2205C7.00744 17.1439 6.99873 17.0652 6.99947 16.9861L6.99952 12.0212C6.83694 11.9501 6.67281 11.8784 6.50714 11.8061L4.78053 11.0553C4.72255 11.0286 4.68085 11.0076 4.63229 10.9814C4.52955 10.9258 4.44114 10.8676 4.35152 10.785C4.14741 10.5969 4.00293 10.3419 4.00293 10.0031C4.00293 9.66534 4.14628 9.41143 4.34893 9.22336C4.40822 9.16833 4.46702 9.12402 4.52991 9.08403L4.62786 9.02648C4.67627 8.99999 4.71789 8.9788 4.77579 8.95178L6.73699 8.08014C7.72388 7.63639 8.80813 7.14027 10.1949 6.50018L14.6136 4.46375L15.2323 4.18479C15.5655 4.04161 15.7153 4.0067 15.9907 4.00494ZM20.9996 23.0001C20.4474 23.0001 19.9996 23.4478 19.9996 24.0001L19.9986 25.9991H21.9986L21.9996 24.0001C21.9996 23.4873 21.6136 23.0646 21.1163 23.0069L20.9996 23.0001ZM16.0016 6.02713L15.968 6.04469L8.69714 9.38821L7.35564 9.99413L9.70999 11.0308C12.1622 12.1212 14.179 13.0546 15.6622 13.7858L16.0146 13.9611L17.8964 13.0908C18.3979 12.8595 18.992 13.0785 19.2233 13.58C19.4547 14.0815 19.2357 14.6755 18.7342 14.9069L16.9825 15.7167C16.4653 15.9563 16.3349 16.005 16.004 16.005C15.7374 16.005 15.5951 15.9721 15.3124 15.8417L13.9427 15.1737C12.6148 14.5364 10.9495 13.7716 8.9997 12.9038L8.99893 16.3789L10.3496 17.0597C11.6117 17.6968 12.8631 18.332 14.1036 18.9653L16.0016 19.9361L16.3368 19.7618L17.2656 19.255L17.5462 19.1088C18.1984 18.777 19.017 18.3645 20.002 17.8713L20.0026 12.9291L18.5866 12.2961L17.0794 11.6074L15.5732 10.9047C15.0737 10.6691 14.8596 10.0733 15.0951 9.5737C15.3306 9.07415 15.9265 8.8601 16.4261 9.09561C17.4202 9.56426 18.415 10.0236 19.4105 10.4737L21.231 11.2891C21.42 11.3783 21.483 11.4237 21.6043 11.5314C21.7899 11.6961 21.916 11.9075 21.9705 12.149C21.9926 12.2474 21.9997 12.3059 22.0019 12.3963L22 16.8738C22.3206 16.7141 22.6533 16.5486 22.9981 16.3771L22.9989 12.9279L22.9976 12.5976L22.9971 11.9899C23.0006 11.1743 23.078 10.8558 23.6416 10.4899L23.7528 10.4223C23.7904 10.4012 23.831 10.3802 23.8823 10.355L24.4985 10.0687L24.6956 9.97913L21.6451 8.58252C20.5299 8.07367 19.432 7.57506 18.3573 7.08944L16.0016 6.02713Z" fill="#CB0039"/>
</svg>
