<svg width="210" height="105" viewBox="0 0 210 105" fill="none" xmlns="http://www.w3.org/2000/svg">
<mask id="mask0" mask-type="alpha" maskUnits="userSpaceOnUse" x="6" y="5" width="197" height="91">
<path d="M197.003 5.04785H12.123C9.0709 5.04785 6.59668 7.53396 6.59668 10.6007V90.3604C6.59668 93.4271 9.0709 95.9132 12.123 95.9132H197.003C200.055 95.9132 202.53 93.4271 202.53 90.3604V10.6007C202.53 7.53396 200.055 5.04785 197.003 5.04785Z" fill="white"/>
</mask>
<g mask="url(#mask0)">
<path d="M196.501 5.55273H12.6249C9.57285 5.55273 7.09863 8.03885 7.09863 11.1056V89.8556C7.09863 92.9224 9.57285 95.4085 12.6249 95.4085H196.501C199.553 95.4085 202.027 92.9224 202.027 89.8556V11.1056C202.027 8.03885 199.553 5.55273 196.501 5.55273Z" fill="#B1E023" stroke="#E3DEDC" stroke-opacity="0.287779"/>
</g>
<g filter="url(#filter0_d)">
<path d="M175.401 31.2979H145.257C143.038 31.2979 141.238 33.1059 141.238 35.3363V65.6248C141.238 67.8552 143.038 69.6632 145.257 69.6632H175.401C177.621 69.6632 179.42 67.8552 179.42 65.6248V35.3363C179.42 33.1059 177.621 31.2979 175.401 31.2979Z" fill="black"/>
</g>
<path d="M175.401 31.2979H145.257C143.038 31.2979 141.238 33.1059 141.238 35.3363V65.6248C141.238 67.8552 143.038 69.6632 145.257 69.6632H175.401C177.621 69.6632 179.42 67.8552 179.42 65.6248V35.3363C179.42 33.1059 177.621 31.2979 175.401 31.2979Z" fill="white"/>
<g filter="url(#filter1_d)">
<path d="M68.8932 31.2979H38.7496C36.5299 31.2979 34.7305 33.1059 34.7305 35.3363V65.6248C34.7305 67.8552 36.5299 69.6632 38.7496 69.6632H68.8932C71.1129 69.6632 72.9123 67.8552 72.9123 65.6248V35.3363C72.9123 33.1059 71.1129 31.2979 68.8932 31.2979Z" fill="black"/>
</g>
<path d="M68.8932 31.2979H38.7496C36.5299 31.2979 34.7305 33.1059 34.7305 35.3363V65.6248C34.7305 67.8552 36.5299 69.6632 38.7496 69.6632H68.8932C71.1129 69.6632 72.9123 67.8552 72.9123 65.6248V35.3363C72.9123 33.1059 71.1129 31.2979 68.8932 31.2979Z" fill="white"/>
<g filter="url(#filter2_d)">
<path d="M127.17 25.2402H86.979C84.2044 25.2402 81.9551 27.5003 81.9551 30.2883V70.6729C81.9551 73.4609 84.2044 75.721 86.979 75.721H127.17C129.945 75.721 132.194 73.4609 132.194 70.6729V30.2883C132.194 27.5003 129.945 25.2402 127.17 25.2402Z" fill="black"/>
</g>
<path d="M127.17 25.2402H86.979C84.2044 25.2402 81.9551 27.5003 81.9551 30.2883V70.6729C81.9551 73.4609 84.2044 75.721 86.979 75.721H127.17C129.945 75.721 132.194 73.4609 132.194 70.6729V30.2883C132.194 27.5003 129.945 25.2402 127.17 25.2402Z" fill="white"/>
<path fill-rule="evenodd" clip-rule="evenodd" d="M118.124 38.3652C118.679 38.3652 119.129 38.8173 119.129 39.3748C119.129 39.8926 118.741 40.3194 118.241 40.3777L118.124 40.3845H117.123L117.127 41.3965C117.507 41.3994 117.746 41.4058 117.923 41.4206L118 41.428L118.134 41.4465C118.771 41.5549 119.145 42.0235 119.128 42.6218L119.119 42.8739C119.093 43.3696 119.02 43.8172 118.819 44.3597C118.496 45.2338 117.928 45.8998 117.118 46.2241L117.122 53.4446C117.123 53.4661 117.124 53.4877 117.124 53.5095L117.12 53.5721L117.123 57.5093C117.124 57.5221 117.124 57.535 117.124 57.5479L117.122 57.5853L117.124 60.5768C117.124 62.1922 116.666 62.5523 114.732 62.592L114.311 62.596L110.108 62.5959C110.102 62.596 110.096 62.596 110.09 62.596C109.575 62.596 109.15 62.2063 109.092 61.7041L109.087 61.6472C109.086 61.6271 109.086 61.6068 109.086 61.5864V61.5682V53.6537C109.086 52.4486 108.175 51.4902 107.076 51.4902C106.025 51.4902 105.146 52.3671 105.072 53.498L105.066 53.6537V61.5864C105.066 62.144 104.617 62.596 104.062 62.596L104.045 62.595L99.6254 62.5951C97.5888 62.5763 97.0626 62.2696 97.0298 60.7397L97.0282 57.5592C97.0281 57.5555 97.0281 57.5517 97.0281 57.5479L97.0291 57.5368L97.0281 46.446C97.0281 46.368 97.0292 46.2929 97.0314 46.2206C96.3168 45.9327 95.7837 45.3769 95.4447 44.6405C95.1426 43.9843 95.0311 43.3031 95.0191 42.6585L95.0213 42.4924C95.0635 41.832 95.5208 41.5089 96.0933 41.4344C96.283 41.4097 96.5323 41.4001 97.0262 41.3964L97.0281 40.3845H96.0233C95.4684 40.3845 95.0186 39.9324 95.0186 39.3748C95.0186 38.8571 95.4064 38.4303 95.9062 38.372L96.0233 38.3652H118.124ZM103.057 58.5575H99.0367L99.0377 60.5707L99.8415 60.5768L103.057 60.5758V58.5575ZM115.112 58.5575H111.095V60.5748L115.039 60.5728L115.114 60.5707L115.112 58.5575ZM103.057 54.5191H99.0367V56.5383H103.057V54.5191ZM115.111 54.5191H111.095V56.5383H115.112L115.111 54.5191ZM114.62 46.4431L99.1131 46.4462L99.0377 46.4472L99.0367 52.4999L103.212 52.4998C103.692 50.7561 105.233 49.471 107.076 49.471C108.919 49.471 110.46 50.7561 110.94 52.4998L115.11 52.4999L115.109 46.4472L114.62 46.4431ZM102.052 48.4614C102.607 48.4614 103.057 48.9134 103.057 49.471C103.057 49.9888 102.669 50.4155 102.169 50.4738L102.052 50.4806H101.047C100.492 50.4806 100.042 50.0286 100.042 49.471C100.042 48.9532 100.43 48.5265 100.93 48.4682L101.047 48.4614H102.052ZM113.105 48.4614C113.66 48.4614 114.109 48.9134 114.109 49.471C114.109 49.9888 113.722 50.4155 113.222 50.4738L113.105 50.4806H112.1C111.545 50.4806 111.095 50.0286 111.095 49.471C111.095 48.9532 111.483 48.5265 111.983 48.4682L112.1 48.4614H113.105ZM117.011 43.4143H97.1366L97.1818 43.5726L97.2686 43.7929C97.4669 44.2236 97.7364 44.4229 98.2339 44.4229H115.918C116.458 44.4229 116.741 44.1817 116.936 43.6558C116.963 43.5828 116.986 43.5114 117.006 43.4407L117.011 43.4143ZM115.114 40.3845H99.0367L99.0377 41.3941H115.114V40.3845Z" fill="#075F49"/>
<path fill-rule="evenodd" clip-rule="evenodd" d="M165.604 48.9664C165.99 48.9664 166.309 49.2587 166.352 49.6353L166.357 49.7236C166.357 50.112 166.648 50.432 167.023 50.4758L167.111 50.4808C168.953 50.4808 170.125 51.9485 170.125 53.8883C170.125 54.5263 169.951 54.9974 169.541 55.705L169.267 56.1654L169.26 56.1772C169.258 56.1805 169.256 56.1839 169.254 56.1872C167.34 59.2173 163.997 61.0818 160.329 61.0818C158.929 61.0818 157.549 60.7998 156.271 60.2667C155.887 60.1062 155.705 59.6631 155.865 59.2769C156.024 58.8907 156.465 58.7077 156.85 58.8681C157.945 59.3255 159.129 59.5674 160.329 59.5674C163.479 59.5674 166.343 57.97 167.982 55.3755L168.143 55.1054C168.496 54.5171 168.618 54.2205 168.618 53.8883C168.618 52.7207 168.039 51.9953 167.111 51.9953C165.862 51.9953 164.85 50.9782 164.85 49.7236C164.85 49.3054 165.187 48.9664 165.604 48.9664ZM167.122 42.2842L167.231 42.3862L168.398 43.5593L168.443 43.6062L168.48 43.6461L168.543 43.725C168.671 43.8946 168.75 44.0874 168.741 44.3238C168.733 44.567 168.677 44.7127 168.53 44.8947L168.449 44.9894L168.291 45.1574L158.794 54.6998C158.491 54.9981 158.342 55.1148 158.055 55.1425C158.063 55.2269 158.068 55.3143 158.068 55.4027C158.068 56.8176 156.964 57.9736 155.575 58.049L155.43 58.053H152.039C151.623 58.053 151.285 57.7139 151.285 57.2958C151.285 56.9074 151.576 56.5874 151.951 56.5436L152.039 56.5385C152.426 56.5385 152.744 56.2462 152.788 55.8696L152.793 55.7813V55.4027C152.793 53.939 153.974 52.7525 155.43 52.7525C155.518 52.7525 155.605 52.7568 155.691 52.7653L155.714 52.6521C155.77 52.4417 155.805 52.3644 156.01 52.1474L156.109 52.0451L165.483 42.6254C166.146 41.959 166.552 41.7826 167.122 42.2842ZM163.343 52.7525C164.591 52.7525 165.604 53.7695 165.604 55.0241C165.604 56.2787 164.591 57.2958 163.343 57.2958C162.094 57.2958 161.082 56.2787 161.082 55.0241C161.082 53.7695 162.094 52.7525 163.343 52.7525ZM155.43 54.2669C154.843 54.2669 154.36 54.7174 154.305 55.2933L154.3 55.4027V55.7813L154.298 55.8035L154.295 55.9369C154.281 56.1466 154.238 56.3485 154.171 56.5388L155.43 56.5385C156.055 56.5385 156.561 56.03 156.561 55.4027C156.561 54.7754 156.055 54.2669 155.43 54.2669ZM163.343 54.2669C162.927 54.2669 162.589 54.6059 162.589 55.0241C162.589 55.4423 162.927 55.7813 163.343 55.7813C163.759 55.7813 164.096 55.4423 164.096 55.0241C164.096 54.6059 163.759 54.2669 163.343 54.2669ZM160.329 39.8799C161.74 39.8799 163.109 40.1589 164.387 40.6955C164.771 40.8567 164.952 41.3002 164.792 41.6861C164.631 42.072 164.19 42.2541 163.806 42.0928C162.711 41.6331 161.539 41.3943 160.329 41.3943C155.334 41.3943 151.285 45.4625 151.285 50.4808C151.285 51.6995 151.523 52.8706 151.982 53.9748C152.143 54.3606 151.962 54.8042 151.578 54.9655C151.194 55.1268 150.752 54.9449 150.592 54.559C150.056 53.2711 149.778 51.9015 149.778 50.4808C149.778 44.6261 154.502 39.8799 160.329 39.8799ZM158.776 51.506L157.417 52.8716L157.95 53.407L159.309 52.0411L158.776 51.506ZM154.3 47.452C155.548 47.452 156.561 48.469 156.561 49.7236C156.561 50.9782 155.548 51.9953 154.3 51.9953C153.051 51.9953 152.039 50.9782 152.039 49.7236C152.039 48.469 153.051 47.452 154.3 47.452ZM166.475 43.7698L159.841 50.4358L160.374 50.9709L167.009 44.3047L166.475 43.7698ZM154.3 48.9664C153.884 48.9664 153.546 49.3054 153.546 49.7236C153.546 50.1418 153.884 50.4808 154.3 50.4808C154.716 50.4808 155.053 50.1418 155.053 49.7236C155.053 49.3054 154.716 48.9664 154.3 48.9664ZM159.575 42.1515C160.824 42.1515 161.836 43.1686 161.836 44.4232C161.836 45.6777 160.824 46.6948 159.575 46.6948C158.326 46.6948 157.314 45.6777 157.314 44.4232C157.314 43.1686 158.326 42.1515 159.575 42.1515ZM159.575 43.6659C159.159 43.6659 158.821 44.005 158.821 44.4232C158.821 44.8413 159.159 45.1804 159.575 45.1804C159.991 45.1804 160.329 44.8413 160.329 44.4232C160.329 44.005 159.991 43.6659 159.575 43.6659Z" fill="#075F49"/>
<path fill-rule="evenodd" clip-rule="evenodd" d="M54.198 42.1514C56.0709 42.1514 57.5892 43.6769 57.5892 45.5588C57.5892 46.6294 57.0979 47.5846 56.3294 48.2093L57.3052 48.2096C57.3304 48.21 57.3522 48.2104 57.3722 48.2111L57.483 48.2186C57.6884 48.2389 57.865 48.2953 58.0349 48.4462C58.2223 48.6126 58.3026 48.8107 58.3302 49.0315C58.337 49.0857 58.3402 49.1269 58.3416 49.1877L58.3417 50.0354C59.3591 49.536 60.3738 49.0215 61.3858 48.4919C61.4893 48.4377 61.5457 48.4087 61.5942 48.3861L61.666 48.3547C61.9057 48.256 62.1132 48.2225 62.3893 48.3554C62.7124 48.5109 62.8197 48.7543 62.8532 49.0404C62.8593 49.0916 62.862 49.1306 62.8633 49.1898L62.8643 56.1598C62.8643 56.2603 62.8639 56.319 62.8615 56.3682L62.8533 56.4637C62.8206 56.7453 62.7166 56.9846 62.4035 57.1434C62.1306 57.2819 61.9202 57.2527 61.6797 57.1588C61.6415 57.1439 61.6101 57.1305 61.5688 57.1111L58.3419 55.4904L58.3426 56.2487C58.3424 56.2746 58.3421 56.297 58.3416 56.3173L58.3395 56.3729L58.3301 56.474C58.302 56.6958 58.2205 56.8948 58.0316 57.0609C57.8616 57.2104 57.6856 57.2661 57.4804 57.2861C57.4229 57.2918 57.3781 57.2941 57.3019 57.295L53.3793 57.2946L54.3541 58.2746C54.6484 58.5703 54.6484 59.0497 54.3541 59.3455C54.0825 59.6184 53.655 59.6394 53.3594 59.4084L53.2884 59.3455L51.5606 57.6096L49.8326 59.3455L49.7616 59.4084C49.466 59.6394 49.0385 59.6184 48.7669 59.3455C48.4726 59.0497 48.4726 58.5703 48.7669 58.2746L49.7399 57.2956H45.9624C45.5291 57.2956 45.4362 57.292 45.2519 57.1774L45.1777 57.129C44.8252 56.8917 44.7809 56.6798 44.7783 56.2306L44.7791 49.2006L44.7807 49.1494L44.7879 49.0572C44.8084 48.8622 44.8654 48.6893 45.0084 48.5251C45.2587 48.2377 45.4226 48.2112 45.8819 48.2092L46.3239 48.2095C45.8351 47.7285 45.5318 47.0578 45.5318 46.316C45.5318 44.8523 46.7127 43.6658 48.1693 43.6658C49.626 43.6658 50.8069 44.8523 50.8069 46.316C50.8069 47.0578 50.5036 47.7285 50.0148 48.2095L52.0666 48.2092C51.2982 47.5846 50.8069 46.6293 50.8069 45.5588C50.8069 43.6769 52.3252 42.1514 54.198 42.1514ZM56.8356 49.7227L46.2846 49.7235L46.2854 55.7812H56.8356V49.7227ZM61.3571 50.2096L61.0429 50.3732C60.0027 50.906 58.9597 51.4232 57.9137 51.9247L58.3419 51.7165L58.3428 53.7988L61.3571 55.3132V50.2096ZM48.1693 45.1802C47.545 45.1802 47.039 45.6887 47.039 46.316C47.039 46.9433 47.545 47.4518 48.1693 47.4518C48.7936 47.4518 49.2997 46.9433 49.2997 46.316C49.2997 45.6887 48.7936 45.1802 48.1693 45.1802ZM54.198 43.6658C53.1576 43.6658 52.3141 44.5133 52.3141 45.5588C52.3141 46.6043 53.1576 47.4518 54.198 47.4518C55.2385 47.4518 56.082 46.6043 56.082 45.5588C56.082 44.5133 55.2385 43.6658 54.198 43.6658Z" fill="#075F49"/>
<defs>
<filter id="filter0_d" x="137.238" y="27.2979" width="46.1818" height="46.3654" filterUnits="userSpaceOnUse" color-interpolation-filters="sRGB">
<feFlood flood-opacity="0" result="BackgroundImageFix"/>
<feColorMatrix in="SourceAlpha" type="matrix" values="0 0 0 0 0 0 0 0 0 0 0 0 0 0 0 0 0 0 127 0"/>
<feOffset/>
<feGaussianBlur stdDeviation="2"/>
<feColorMatrix type="matrix" values="0 0 0 0 0 0 0 0 0 0 0 0 0 0 0 0 0 0 0.155622 0"/>
<feBlend mode="normal" in2="BackgroundImageFix" result="effect1_dropShadow"/>
<feBlend mode="normal" in="SourceGraphic" in2="effect1_dropShadow" result="shape"/>
</filter>
<filter id="filter1_d" x="30.7305" y="27.2979" width="46.1818" height="46.3654" filterUnits="userSpaceOnUse" color-interpolation-filters="sRGB">
<feFlood flood-opacity="0" result="BackgroundImageFix"/>
<feColorMatrix in="SourceAlpha" type="matrix" values="0 0 0 0 0 0 0 0 0 0 0 0 0 0 0 0 0 0 127 0"/>
<feOffset/>
<feGaussianBlur stdDeviation="2"/>
<feColorMatrix type="matrix" values="0 0 0 0 0 0 0 0 0 0 0 0 0 0 0 0 0 0 0.155622 0"/>
<feBlend mode="normal" in2="BackgroundImageFix" result="effect1_dropShadow"/>
<feBlend mode="normal" in="SourceGraphic" in2="effect1_dropShadow" result="shape"/>
</filter>
<filter id="filter2_d" x="67.9551" y="11.2402" width="78.2392" height="78.4808" filterUnits="userSpaceOnUse" color-interpolation-filters="sRGB">
<feFlood flood-opacity="0" result="BackgroundImageFix"/>
<feColorMatrix in="SourceAlpha" type="matrix" values="0 0 0 0 0 0 0 0 0 0 0 0 0 0 0 0 0 0 127 0"/>
<feOffset/>
<feGaussianBlur stdDeviation="7"/>
<feColorMatrix type="matrix" values="0 0 0 0 0 0 0 0 0 0 0 0 0 0 0 0 0 0 0.155622 0"/>
<feBlend mode="normal" in2="BackgroundImageFix" result="effect1_dropShadow"/>
<feBlend mode="normal" in="SourceGraphic" in2="effect1_dropShadow" result="shape"/>
</filter>
</defs>
</svg>
