<svg width="32" height="32" viewBox="0 0 32 32" fill="none" xmlns="http://www.w3.org/2000/svg">
<path d="M26.9955 4C27.5478 4 27.9955 4.44772 27.9955 5C27.9955 5.51284 27.6095 5.93551 27.1121 5.99327L26.9955 6H25.999L26.003 7.00239C26.3812 7.00527 26.6188 7.01161 26.7953 7.02629L26.8716 7.03356L27.0057 7.05196C27.6396 7.15933 28.0112 7.62347 27.9947 8.21606L27.9856 8.46573C27.9602 8.95667 27.8872 9.40005 27.6874 9.93738C27.3654 10.8032 26.8 11.4628 25.9942 11.784L25.998 18.9358C25.9993 18.957 26 18.9784 26 19L25.996 19.062L25.9993 22.9617C25.9998 22.9744 26 22.9872 26 23L25.998 23.037L26 26C26.0004 27.6001 25.5443 27.9567 23.6197 27.9961L23.2002 28L19.0173 27.9999C19.0116 28 19.0058 28 19 28C18.4872 28 18.0645 27.614 18.0067 27.1166L18.0018 27.0603C18.0006 27.0403 18 27.0202 18 27V26.982V19.1429C18 17.9493 17.0939 17 16 17C14.9537 17 14.0791 17.8685 14.0051 18.9886L14 19.1429V27C14 27.5523 13.5523 28 13 28L12.983 27.999L8.58494 27.9991C6.55798 27.9805 6.03433 27.6767 6.00167 26.1614L6.00006 23.0112C6.00002 23.0075 6 23.0037 6 23L6.001 22.989L6 12.0038C6 11.9265 6.00106 11.8521 6.0033 11.7805C5.29202 11.4954 4.76146 10.9449 4.42412 10.2155C4.12348 9.56554 4.01253 8.89085 4.00059 8.25242L4.00277 8.0879C4.04473 7.43372 4.49985 7.11375 5.06966 7.0399C5.25846 7.01544 5.50653 7.006 5.99809 7.00231L6 6H5C4.44772 6 4 5.55228 4 5C4 4.48716 4.38604 4.06449 4.88338 4.00673L5 4H26.9955ZM12 24H7.999L8 25.994L8.80003 26L12 25.999V24ZM23.998 24H20V25.998L23.9254 25.9961L24 25.994L23.998 24ZM12 20H7.999V22H12V20ZM23.997 20H20V22H23.998L23.997 20ZM23.5083 12.001L8.07501 12.004L8 12.005L7.999 18L12.1544 17.9999C12.6322 16.2729 14.1661 15 16 15C17.8339 15 19.3678 16.2729 19.8456 17.9999L23.996 18L23.995 12.005L23.5083 12.001ZM11 14C11.5523 14 12 14.4477 12 15C12 15.5128 11.614 15.9355 11.1166 15.9933L11 16H10C9.44772 16 9 15.5523 9 15C9 14.4872 9.38604 14.0645 9.88338 14.0067L10 14H11ZM22 14C22.5523 14 23 14.4477 23 15C23 15.5128 22.614 15.9355 22.1166 15.9933L22 16H21C20.4477 16 20 15.5523 20 15C20 14.4872 20.386 14.0645 20.8834 14.0067L21 14H22ZM25.888 9.001H6.108L6.15294 9.1578L6.23935 9.37593C6.43668 9.80255 6.70495 10 7.20003 10H24.8003C25.3374 10 25.6191 9.76111 25.8128 9.24021C25.8397 9.16785 25.8628 9.09711 25.8826 9.02713L25.888 9.001ZM24 6H7.999L8 7H24V6Z" fill="#FFC000"/>
</svg>
