<svg width="25" height="24" viewBox="0 0 25 24" fill="none" xmlns="http://www.w3.org/2000/svg">
<path d="M8.81134 23.9757C9.93792 23.9757 10.8512 23.0624 10.8512 21.9358C10.8512 20.8093 9.93792 19.896 8.81134 19.896C7.68476 19.896 6.77148 20.8093 6.77148 21.9358C6.77148 23.0624 7.68476 23.9757 8.81134 23.9757Z" fill="#B1E023"/>
<path d="M19.4173 23.9757C20.5439 23.9757 21.4571 23.0624 21.4571 21.9358C21.4571 20.8093 20.5439 19.896 19.4173 19.896C18.2907 19.896 17.3774 20.8093 17.3774 21.9358C17.3774 23.0624 18.2907 23.9757 19.4173 23.9757Z" fill="#B1E023"/>
<path d="M24.804 3.07961C24.728 2.98087 24.6304 2.90085 24.5187 2.84569C24.4069 2.79053 24.284 2.76169 24.1594 2.76139H5.31121L4.94403 1.5946C4.9037 1.46932 4.83366 1.35565 4.73989 1.2633C4.64612 1.17095 4.53139 1.10265 4.40551 1.06423L1.06016 0.036149C0.957291 0.00453949 0.849207 -0.00649991 0.742076 0.00366138C0.634945 0.0138227 0.530864 0.0449855 0.435777 0.0953706C0.243738 0.197128 0.0999883 0.371005 0.03615 0.57875C-0.0276883 0.786494 -0.00638549 1.01109 0.0953719 1.20313C0.197129 1.39517 0.371006 1.53892 0.578751 1.60275L3.50798 2.50029L7.24499 14.307L5.915 15.4003L5.80893 15.5064C5.48002 15.8872 5.29368 16.3705 5.28177 16.8736C5.26986 17.3767 5.43314 17.8683 5.74366 18.2643C5.96605 18.5347 6.24865 18.7494 6.56885 18.8911C6.88905 19.0327 7.23796 19.0975 7.58768 19.0802H21.2057C21.4221 19.0802 21.6297 18.9942 21.7827 18.8412C21.9357 18.6882 22.0217 18.4807 22.0217 18.2643C22.0217 18.0479 21.9357 17.8403 21.7827 17.6873C21.6297 17.5343 21.4221 17.4483 21.2057 17.4483H7.45713C7.36317 17.4451 7.27163 17.4177 7.19134 17.3688C7.11106 17.3199 7.04475 17.2511 6.99881 17.1691C6.95288 17.087 6.92887 16.9946 6.92912 16.9005C6.92936 16.8065 6.95384 16.7142 7.0002 16.6324L8.96662 15.0005H21.5566C21.743 15.0059 21.9256 14.9474 22.0741 14.8345C22.2225 14.7217 22.3279 14.5614 22.3725 14.3804L24.9835 3.77316C25.0084 3.65152 25.0051 3.52581 24.974 3.40563C24.9429 3.28544 24.8847 3.17394 24.804 3.07961Z" fill="#B1E023"/>
</svg>
