<svg width="32" height="32" viewBox="0 0 32 32" fill="none" xmlns="http://www.w3.org/2000/svg">
<path d="M9 28C8.48716 28 8.06449 27.614 8.00673 27.1166L8 27L8.0003 15.9726C5.75018 15.724 4 13.8164 4 11.5C4 9.08573 5.90124 7.11551 8.28816 7.0049L8.5 7H23.5C25.9853 7 28 9.01472 28 11.5C28 13.816 26.2503 15.7234 24.0007 15.9725L24 27C24 27.5128 23.614 27.9355 23.1166 27.9933L23 28H9ZM19.7581 14.0005H12.2419C11.707 14.7994 10.923 15.4174 10.0011 15.7436L10 26H13V17C13 16.4477 13.4477 16 14 16C14.5128 16 14.9355 16.386 14.9933 16.8834L15 17V26H17V17C17 16.4477 17.4477 16 18 16C18.5128 16 18.9355 16.386 18.9933 16.8834L19 17V26H22L21.9999 15.7439C21.0776 15.4179 20.2932 14.7997 19.7581 14.0005ZM23.5 9H8.5C7.11929 9 6 10.1193 6 11.5C6 12.8807 7.11929 14 8.5 14C9.82548 14 10.91 12.9685 10.9947 11.6644L11 11.5C11 10.9477 11.4477 10.5 12 10.5C12.5523 10.5 13 10.9477 13 11.5C13 11.6692 12.9907 11.8363 12.9725 12.0007H19.0275C19.0093 11.8363 19 11.6692 19 11.5C19 10.9477 19.4477 10.5 20 10.5C20.5523 10.5 21 10.9477 21 11.5C21 12.8807 22.1193 14 23.5 14C24.8807 14 26 12.8807 26 11.5C26 10.1745 24.9685 9.08996 23.6644 9.00532L23.5 9ZM24 4C24.5523 4 25 4.44772 25 5C25 5.51284 24.614 5.93551 24.1166 5.99327L24 6H8C7.44772 6 7 5.55228 7 5C7 4.48716 7.38604 4.06449 7.88338 4.00673L8 4H24Z" fill="#A139E3"/>
</svg>
