<svg width="9" height="12" viewBox="0 0 9 12" fill="none" xmlns="http://www.w3.org/2000/svg">
<path d="M0.257382 6.49349L8.05725 11.8934C8.14727 11.9557 8.25261 11.9922 8.36186 11.9989C8.47112 12.0056 8.58013 11.9823 8.67709 11.9315C8.77405 11.8807 8.85526 11.8043 8.91194 11.7107C8.96862 11.617 8.9986 11.5097 8.99864 11.4002V0.600388C8.99871 0.490876 8.96881 0.383432 8.91218 0.289702C8.85554 0.195971 8.77433 0.119529 8.67735 0.0686594C8.58037 0.0177895 8.47132 -0.00556743 8.36201 0.00111986C8.2527 0.00780716 8.14731 0.0442836 8.05725 0.106596L0.257382 5.50651C0.177919 5.56197 0.113022 5.63579 0.0682114 5.72171C0.0234005 5.80763 0 5.9031 0 6C0 6.0969 0.0234005 6.19237 0.0682114 6.27829C0.113022 6.36421 0.177919 6.43803 0.257382 6.49349Z" fill="#075F49"/>
</svg>
