<svg width="20" height="19" viewBox="0 0 20 19" fill="none" xmlns="http://www.w3.org/2000/svg">
<path d="M3.656 17.979C3.51242 18.1038 3.3362 18.1851 3.14803 18.2133C2.95987 18.2415 2.76756 18.2155 2.59369 18.1382C2.41982 18.0609 2.2716 17.9356 2.16644 17.7771C2.06128 17.6185 2.00354 17.4332 2 17.243V15C1.46957 15 0.960859 14.7893 0.585786 14.4142C0.210714 14.0391 0 13.5304 0 13V6C0 5.46957 0.210714 4.96086 0.585786 4.58579C0.960859 4.21071 1.46957 4 2 4H13C13.5304 4 14.0391 4.21071 14.4142 4.58579C14.7893 4.96086 15 5.46957 15 6V13C15 13.5304 14.7893 14.0391 14.4142 14.4142C14.0391 14.7893 13.5304 15 13 15H8.003L3.656 17.979ZM16 10.017C15.9968 10.14 15.9968 10.263 16 10.386V10.016C16.005 9.909 16.006 8.569 16.004 5.997C16.0032 5.20187 15.6868 4.43958 15.1243 3.87762C14.5617 3.31566 13.7991 3 13.004 3H5V2C5 1.46957 5.21071 0.960859 5.58579 0.585786C5.96086 0.210714 6.46957 0 7 0H18C18.5304 0 19.0391 0.210714 19.4142 0.585786C19.7893 0.960859 20 1.46957 20 2V9C20 9.53043 19.7893 10.0391 19.4142 10.4142C19.0391 10.7893 18.5304 11 18 11V13.243C17.9965 13.4332 17.9387 13.6185 17.8336 13.7771C17.7284 13.9356 17.5802 14.0609 17.4063 14.1382C17.2324 14.2155 17.0401 14.2415 16.852 14.2133C16.6638 14.1851 16.4876 14.1038 16.344 13.979L16 13.743V10.017Z" fill="#B1E023"/>
</svg>