<svg width="44" height="38" viewBox="0 0 44 38" fill="none" xmlns="http://www.w3.org/2000/svg">
<path d="M0.0625 0.4375V30.8125C0.0625 34.5419 3.08312 37.5625 6.8125 37.5625H37.1875C40.9169 37.5625 43.9375 34.5419 43.9375 30.8125V12.25H33.8125V0.4375H0.0625ZM3.4375 3.8125H30.4375V30.8125C30.4375 32.0444 30.8088 33.1919 31.3876 34.1875H6.8125C4.80437 34.1875 3.4375 32.8206 3.4375 30.8125V3.8125ZM6.8125 7.1875V15.625H27.0625V7.1875H6.8125ZM10.1875 10.5625H23.6875V12.25H10.1875V10.5625ZM33.8125 15.625H40.5625V30.8125C40.5625 32.8206 39.1956 34.1875 37.1875 34.1875C35.1794 34.1875 33.8125 32.8206 33.8125 30.8125V15.625ZM6.8125 17.3125V20.6875H15.25V17.3125H6.8125ZM18.625 17.3125V20.6875H27.0625V17.3125H18.625ZM6.8125 22.375V25.75H15.25V22.375H6.8125ZM18.625 22.375V25.75H27.0625V22.375H18.625ZM6.8125 27.4375V30.8125H15.25V27.4375H6.8125ZM18.625 27.4375V30.8125H27.0625V27.4375H18.625Z" fill="#B1E023"/>
</svg>
