<svg width="24" height="28" viewBox="0 0 24 28" fill="none" xmlns="http://www.w3.org/2000/svg">
<path d="M17.7994 12.0244H6.44595C6.17221 12.0244 5.90969 11.9156 5.71612 11.722C5.52256 11.5285 5.41382 11.266 5.41382 10.9922V7.37976C5.41382 3.6806 8.42352 0.670898 12.1227 0.670898C15.8218 0.670898 18.8315 3.6806 18.8315 7.37976V10.9922C18.8315 11.266 18.7228 11.5285 18.5292 11.722C18.3357 11.9156 18.0731 12.0244 17.7994 12.0244ZM7.47808 9.96009H16.7673V7.37976C16.7673 4.81904 14.6834 2.73516 12.1227 2.73516C9.56196 2.73516 7.47808 4.81904 7.47808 7.37976V9.96009Z" fill="#7A7C87"/>
<path d="M20.8958 27.5063H3.34957C1.64242 27.5063 0.253174 26.1171 0.253174 24.4099V13.0565C0.253174 11.3493 1.64242 9.96008 3.34957 9.96008H20.8958C22.603 9.96008 23.9922 11.3493 23.9922 13.0565V24.4099C23.9922 26.1171 22.603 27.5063 20.8958 27.5063ZM3.34957 12.0243C3.07583 12.0243 2.81331 12.1331 2.61974 12.3267C2.42618 12.5202 2.31744 12.7827 2.31744 13.0565V24.4099C2.31744 24.6837 2.42618 24.9462 2.61974 25.1398C2.81331 25.3333 3.07583 25.4421 3.34957 25.4421H20.8958C21.1696 25.4421 21.4321 25.3333 21.6257 25.1398C21.8192 24.9462 21.928 24.6837 21.928 24.4099V13.0565C21.928 12.7827 21.8192 12.5202 21.6257 12.3267C21.4321 12.1331 21.1696 12.0243 20.8958 12.0243H3.34957Z" fill="#7A7C87"/>
</svg>
