<svg width="18" height="18" viewBox="0 0 18 18" fill="none" xmlns="http://www.w3.org/2000/svg">
<path d="M17.7817 8.983C17.7903 13.9417 13.9937 17.9965 9.33838 18C7.32772 18.0015 5.48084 17.255 4.02948 16.0073C3.65208 15.6828 3.62387 15.0804 3.96682 14.7151L4.35069 14.3062C4.644 13.9938 5.11226 13.9596 5.43723 14.2342C6.50652 15.138 7.85976 15.6774 9.33224 15.6774C12.7974 15.6774 15.6012 12.6904 15.6012 9.00002C15.6012 5.3091 12.7968 2.32259 9.33224 2.32259C7.66914 2.32259 6.15863 3.01098 5.03707 4.13464L6.76627 5.97652C7.1097 6.34233 6.86647 6.96776 6.38084 6.96776H1.42794C1.12686 6.96776 0.882812 6.70781 0.882812 6.38711V1.11147C0.882812 0.594183 1.46998 0.335105 1.81341 0.700876L3.49553 2.49261C5.01244 0.948486 7.06834 0 9.33224 0C13.9934 0 17.7731 4.02025 17.7817 8.983ZM11.618 11.8421L11.9526 11.3838C12.2299 11.004 12.1657 10.4568 11.8092 10.1615L10.4225 9.01268V5.22582C10.4225 4.74479 10.0564 4.35485 9.60481 4.35485H9.05968C8.60808 4.35485 8.24199 4.74479 8.24199 5.22582V10.1486L10.4705 11.9949C10.827 12.2902 11.3407 12.2218 11.618 11.8421Z" fill="black"/>
</svg>
