<svg width="27" height="21" viewBox="0 0 27 21" fill="none" xmlns="http://www.w3.org/2000/svg">
<path d="M26.0357 1.09096e-06H19.1411C17.6615 1.09096e-06 16.2151 0.421436 14.9705 1.21648L13.5 2.15201L12.0295 1.21648C10.7862 0.421588 9.33813 -0.000783452 7.85893 1.09096e-06H0.964286C0.430915 1.09096e-06 0 0.427414 0 0.956449V17.9334C0 18.4624 0.430915 18.8898 0.964286 18.8898H7.85893C9.3385 18.8898 10.7849 19.3113 12.0295 20.1063L13.3674 20.9611C13.4066 20.9851 13.4518 21 13.497 21C13.5422 21 13.5874 20.988 13.6266 20.9611L14.9645 20.1063C16.2121 19.3113 17.6615 18.8898 19.1411 18.8898H26.0357C26.5691 18.8898 27 18.4624 27 17.9334V0.956449C27 0.427414 26.5691 1.09096e-06 26.0357 1.09096e-06ZM10.2455 11.7314C10.2455 11.854 10.1491 11.9556 10.0316 11.9556H4.4327C4.31518 11.9556 4.21875 11.854 4.21875 11.7314V10.3864C4.21875 10.2639 4.31518 10.1623 4.4327 10.1623H10.0286C10.1461 10.1623 10.2425 10.2639 10.2425 10.3864V11.7314H10.2455ZM10.2455 7.54697C10.2455 7.66951 10.1491 7.77114 10.0316 7.77114H4.4327C4.31518 7.77114 4.21875 7.66951 4.21875 7.54697V6.20196C4.21875 6.07942 4.31518 5.9778 4.4327 5.9778H10.0286C10.1461 5.9778 10.2425 6.07942 10.2425 6.20196V7.54697H10.2455ZM22.7812 11.7314C22.7812 11.854 22.6848 11.9556 22.5673 11.9556H16.9684C16.8509 11.9556 16.7545 11.854 16.7545 11.7314V10.3864C16.7545 10.2639 16.8509 10.1623 16.9684 10.1623H22.5643C22.6818 10.1623 22.7782 10.2639 22.7782 10.3864V11.7314H22.7812ZM22.7812 7.54697C22.7812 7.66951 22.6848 7.77114 22.5673 7.77114H16.9684C16.8509 7.77114 16.7545 7.66951 16.7545 7.54697V6.20196C16.7545 6.07942 16.8509 5.9778 16.9684 5.9778H22.5643C22.6818 5.9778 22.7782 6.07942 22.7782 6.20196V7.54697H22.7812Z" fill="#777777"/>
</svg>
