<svg width="32" height="32" viewBox="0 0 32 32" fill="none" xmlns="http://www.w3.org/2000/svg">
<path d="M20 4C20.5128 4 20.9355 4.38604 20.9933 4.88338L21 5V6L22.6292 6.0008C22.9522 6.00453 23.1159 6.0179 23.316 6.10961L23.42 6.16231C23.8816 6.41608 23.9942 6.7635 23.9986 7.19066L23.999 10L24.2504 10.0008C25.4165 10.0124 25.9366 10.4737 25.9925 11.5755L25.9975 11.7456L25.998 26H27C27.5523 26 28 26.4477 28 27C28 27.5128 27.614 27.9355 27.1166 27.9933L27 28H5C4.44772 28 4 27.5523 4 27C4 26.4872 4.38604 26.0645 4.88338 26.0067L5 26H6L6.00025 15.3859C6.00101 15.2533 6.00393 15.1905 6.01393 15.1005C6.04475 14.8231 6.13311 14.5777 6.35539 14.3554C6.57768 14.1331 6.82312 14.0447 7.10051 14.0139L7.22723 14.0036C7.25987 14.0021 7.29551 14.0012 7.33927 14.0006L12 14C12.5523 14 13 14.4477 13 15C13 15.5128 12.614 15.9355 12.1166 15.9933L12 16H8V26H14L14.0008 11.7442C14.0124 10.58 14.4727 10.0631 15.5803 10.0059L15.7513 10.0008L16 10V7.25096C16 6.44492 16.4573 6.05747 17.2294 6.00639L17.3778 6.00073L19 6V5C19 4.44772 19.4477 4 20 4ZM23.997 12H16V26L24 26.0004L23.997 12ZM22 22C22.5523 22 23 22.4477 23 23C23 23.5128 22.614 23.9355 22.1166 23.9933L22 24H18C17.4477 24 17 23.5523 17 23C17 22.4872 17.386 22.0645 17.8834 22.0067L18 22H22ZM12 22C12.5523 22 13 22.4477 13 23C13 23.5128 12.614 23.9355 12.1166 23.9933L12 24H10C9.44772 24 9 23.5523 9 23C9 22.4872 9.38604 22.0645 9.88338 22.0067L10 22H12ZM22 18C22.5523 18 23 18.4477 23 19C23 19.5128 22.614 19.9355 22.1166 19.9933L22 20H18C17.4477 20 17 19.5523 17 19C17 18.4872 17.386 18.0645 17.8834 18.0067L18 18H22ZM12 18C12.5523 18 13 18.4477 13 19C13 19.5128 12.614 19.9355 12.1166 19.9933L12 20H10C9.44772 20 9 19.5523 9 19C9 18.4872 9.38604 18.0645 9.88338 18.0067L10 18H12ZM22 14C22.5523 14 23 14.4477 23 15C23 15.5128 22.614 15.9355 22.1166 15.9933L22 16H18C17.4477 16 17 15.5523 17 15C17 14.4872 17.386 14.0645 17.8834 14.0067L18 14H22ZM19.983 7.999L17.999 8L18 10H21.999L21.998 8L20.0173 7.99985C20.0116 7.99995 20.0058 8 20 8L19.983 7.999Z" fill="#F53B14"/>
</svg>
