<svg width="19" height="19" viewBox="0 0 19 19" fill="none" xmlns="http://www.w3.org/2000/svg">
<path d="M1.9 0C0.8455 0 0 0.89 0 2V12C0 12.5304 0.200178 13.0391 0.556497 13.4142C0.912816 13.7893 1.39609 14 1.9 14H9.5V19L12.35 16L15.2 19V14H17.1C17.6039 14 18.0872 13.7893 18.4435 13.4142C18.7998 13.0391 19 12.5304 19 12V2C19 1.46957 18.7998 0.960859 18.4435 0.585786C18.0872 0.210714 17.6039 0 17.1 0H1.9ZM9.5 2L12.35 4L15.2 2V5.5L18.05 7L15.2 8.5V12L12.35 10L9.5 12V8.5L6.65 7L9.5 5.5V2ZM1.9 2H6.65V4H1.9V2ZM1.9 6H4.75V8H1.9V6ZM1.9 10H6.65V12H1.9V10Z" fill="black"/>
</svg>
