<svg width="43" height="43" viewBox="0 0 43 43" fill="none" xmlns="http://www.w3.org/2000/svg">
<path d="M35.8334 10.75H19.6128L16.8537 6.95168C16.6313 6.64734 16.34 6.39995 16.0037 6.22972C15.6674 6.05949 15.2956 5.97126 14.9187 5.97224H7.16672C6.53315 5.97224 5.92552 6.22392 5.47752 6.67193C5.02952 7.11993 4.77783 7.72755 4.77783 8.36113V34.6389C4.77783 35.2725 5.02952 35.8801 5.47752 36.3281C5.92552 36.7761 6.53315 37.0278 7.16672 37.0278H35.8334C36.467 37.0278 37.0746 36.7761 37.5226 36.3281C37.9706 35.8801 38.2223 35.2725 38.2223 34.6389V13.1389C38.2223 12.5053 37.9706 11.8977 37.5226 11.4497C37.0746 11.0017 36.467 10.75 35.8334 10.75ZM35.8334 34.6389H7.16672V15.5278H15.8981C16.5317 15.5278 17.1393 15.2761 17.5873 14.8281C18.0353 14.3801 18.287 13.7725 18.287 13.1389H7.16672V8.36113H14.9187L18.0362 12.6492C18.1474 12.8014 18.293 12.925 18.4611 13.0102C18.6293 13.0953 18.8152 13.1394 19.0037 13.1389H35.8334V34.6389Z" fill="#B1E023"/>
</svg>
