<svg width="18" height="18" viewBox="0 0 18 18" fill="none" xmlns="http://www.w3.org/2000/svg">
<path d="M8.58469 5.25803C9.33167 5.25803 10.0481 4.98105 10.5762 4.48801C11.1044 3.99498 11.4012 3.32628 11.4012 2.62902C11.4012 1.93176 11.1044 1.26306 10.5762 0.770021C10.0481 0.276985 9.33167 0 8.58469 0C7.83772 0 7.12133 0.276985 6.59314 0.770021C6.06495 1.26306 5.76821 1.93176 5.76821 2.62902C5.76821 3.32628 6.06495 3.99498 6.59314 4.48801C7.12133 4.98105 7.83772 5.25803 8.58469 5.25803ZM8.58469 8.36027C6.36906 6.44109 3.42115 5.25803 0.135254 5.25803V14.8978C3.42115 14.8978 6.36906 16.0808 8.58469 18C10.8003 16.0808 13.7482 14.8978 17.0341 14.8978V5.25803C13.7482 5.25803 10.8003 6.44109 8.58469 8.36027Z" fill="#075F49"/>
</svg>
