<svg width="32" height="32" viewBox="0 0 32 32" fill="none" xmlns="http://www.w3.org/2000/svg">
<path d="M6.40028 19.0002L9.69662 19.0011C9.7218 19.0015 9.74415 19.0022 9.76511 19.003L9.88583 19.0115C10.1477 19.037 10.3748 19.1085 10.596 19.3021C10.8424 19.5177 10.9482 19.7749 10.9842 20.0586C10.9928 20.126 10.9968 20.1763 10.9986 20.2493L11 26.5625C11 26.6836 10.9995 26.7553 10.9959 26.8176L10.9842 26.9414C10.9482 27.2251 10.8424 27.4823 10.596 27.6979C10.3748 27.8915 10.1477 27.963 9.88583 27.9885C9.82221 27.9947 9.77216 27.9976 9.69662 27.9989L6.31802 27.9992L6.14499 27.9913C5.92052 27.9733 5.72888 27.9251 5.52516 27.7905C5.25296 27.6107 5.09854 27.3508 5.03645 27.0633C5.00771 26.9303 5.00134 26.8249 5.00018 26.6497L5.0016 20.2454L5.01167 20.0942C5.03736 19.8482 5.10917 19.628 5.29126 19.4159C5.49171 19.1824 5.73656 19.0704 6.00488 19.0258C6.12505 19.0058 6.22719 19.001 6.40028 19.0002ZM17.6796 17.001C17.718 17.0016 17.7503 17.0026 17.7804 17.0043L17.9131 17.0165C18.2041 17.0529 18.465 17.1585 18.6849 17.4059C18.8852 17.6313 18.9604 17.8662 18.9873 18.139C18.9949 18.2152 18.998 18.2742 18.9992 18.3743V26.6257C18.9986 26.6758 18.9975 26.7155 18.9956 26.7523L18.9873 26.861C18.9604 27.1338 18.8852 27.3687 18.6849 27.5941C18.465 27.8415 18.2041 27.9471 17.9131 27.9835C17.8417 27.9924 17.7874 27.9966 17.7073 27.9985L14.4973 28C14.295 28 14.2273 27.9987 14.1199 27.9874C13.864 27.9606 13.6373 27.8862 13.4208 27.6988C13.0384 27.3676 13.0029 27.1488 13.0001 26.5427L13.0019 18.2579C13.0096 17.8819 13.0466 17.7836 13.2241 17.5227C13.5387 17.0604 13.8139 17.0036 14.4065 17.0002L17.6796 17.001ZM25.6094 13.0002C25.7723 13.0015 25.8467 13.0069 25.9667 13.0286C26.2991 13.0886 26.5948 13.2616 26.7892 13.5775C26.9656 13.8642 26.9945 13.9587 26.9991 14.5011V26.4989C26.9953 26.9509 26.9746 27.0919 26.8657 27.2922L26.7892 27.4225C26.5948 27.7384 26.2991 27.9114 25.9667 27.9714C25.8707 27.9887 25.8039 27.9957 25.6976 27.9984L22.4973 28C22.3751 28 22.301 27.9994 22.2358 27.9955L22.1057 27.9828C21.8341 27.9473 21.5871 27.8486 21.3733 27.6309C21.0464 27.2981 21.0074 27.0539 21.0008 26.4419L21.0009 14.5472C21.0067 14.0129 21.0385 13.787 21.2852 13.4702C21.6027 13.0626 21.8832 13.0035 22.4168 13.0002H25.6094ZM9 20.999L6.999 21L7 26H9V20.999ZM17 18.999L14.999 19L15 26H17V18.999ZM25 14.999L23 15V26H25V14.999ZM26.6141 4.00025L26.7728 4.00363C26.8034 4.00508 26.8313 4.00711 26.8609 4.00993C27.1366 3.97117 27.4266 4.04711 27.6536 4.24315C27.9196 4.47288 28.0351 4.81217 27.9908 5.13627L27.9964 5.22723L28 5.5V9C28 9.55228 27.5523 10 27 10C26.4872 10 26.0645 9.61396 26.0067 9.11662L26 9L26.0002 7.51901C20.4729 12.9035 12.9885 16 5 16C4.44772 16 4 15.5523 4 15C4 14.4477 4.44772 14 5 14C12.5052 14 19.5275 11.0771 24.6931 5.99978L23.0007 6C22.4878 6 22.0651 5.61396 22.0074 5.11662L22.0007 5C22.0007 4.48716 22.3867 4.06449 22.884 4.00673L23.0007 4L26.6141 4.00025Z" fill="#EA1076"/>
</svg>
