<svg width="24" height="16" viewBox="0 0 24 16" fill="none" xmlns="http://www.w3.org/2000/svg">
<path d="M22.8 10.2857H20.4V12.5714H21.24C21.4388 12.5714 21.6 12.7 21.6 12.8571V13.4286C21.6 13.5857 21.4388 13.7143 21.24 13.7143H2.76C2.56125 13.7143 2.4 13.5857 2.4 13.4286V12.8571C2.4 12.7 2.56125 12.5714 2.76 12.5714H3.6V10.2857H1.2C0.53625 10.2857 0 10.7964 0 11.4286V14.8571C0 15.4893 0.53625 16 1.2 16H22.8C23.4638 16 24 15.4893 24 14.8571V11.4286C24 10.7964 23.4638 10.2857 22.8 10.2857ZM19.2 12.5714V1.15357C19.2 0.514286 18.6563 0 17.9888 0H6.015C5.34375 0 4.8 0.517857 4.8 1.15357V12.5714H19.2ZM7.92 6.07143L8.87625 5.16786C9.03375 5.01786 9.28875 5.01786 9.44625 5.17143L10.995 6.65714L14.565 3.28571C14.7225 3.13571 14.9775 3.13571 15.135 3.28929L16.0837 4.2C16.2413 4.35 16.2413 4.59286 16.08 4.74286L11.2688 9.28572C11.1113 9.43571 10.8562 9.43571 10.6987 9.28214L7.92 6.61429C7.75875 6.46429 7.7625 6.22143 7.92 6.07143Z" fill="black"/>
</svg>
