<svg width="10" height="10" viewBox="0 0 10 10" fill="none" xmlns="http://www.w3.org/2000/svg">
<path d="M1.46492 8.53492C0.987367 8.07368 0.606456 7.52196 0.344411 6.91194C0.0823656 6.30192 -0.0555656 5.64582 -0.0613347 4.98192C-0.0671037 4.31803 0.0594048 3.65963 0.310809 3.04515C0.562214 2.43067 0.933479 1.87241 1.40294 1.40294C1.87241 0.933479 2.43067 0.562214 3.04515 0.310809C3.65963 0.0594048 4.31803 -0.0671037 4.98192 -0.0613347C5.64582 -0.0555656 6.30192 0.0823656 6.91194 0.344411C7.52196 0.606456 8.07368 0.987367 8.53492 1.46492C9.44571 2.40793 9.94968 3.67094 9.93829 4.98192C9.9269 6.29291 9.40105 7.54697 8.47401 8.47401C7.54697 9.40105 6.29291 9.9269 4.98192 9.93829C3.67094 9.94968 2.40793 9.44571 1.46492 8.53492ZM4.49992 5.49992V7.49992H5.49992V4.49992H4.49992V5.49992ZM4.49992 2.49992V3.49992H5.49992V2.49992H4.49992Z" fill="#C4C4C4"/>
</svg>
