<svg width="32" height="32" viewBox="0 0 32 32" fill="none" xmlns="http://www.w3.org/2000/svg">
<path d="M8.00001 4.00001C8.51285 4.00001 8.93552 4.38605 8.99328 4.88339L9.00001 5.00001V8.00001C9.00001 11.7855 12.0048 14.8691 15.7594 14.996L16 15C20.8818 15 24.8558 18.8868 24.9962 23.7346L25 24V27C25 27.5523 24.5523 28 24 28C23.4872 28 23.0645 27.614 23.0067 27.1166L23 27V24C23 20.134 19.866 17 16 17C11.1182 17 7.14422 13.1132 7.00385 8.26537L7.00001 8.00001V5.00001C7.00001 4.44773 7.44773 4.00001 8.00001 4.00001ZM11.4484 17.3372C11.8144 17.7507 11.776 18.3827 11.3624 18.7488C9.94237 20.0058 9.08439 21.7862 9.0059 23.7104L9 24V27C9 27.5523 8.55228 28 8 28C7.48716 28 7.06449 27.614 7.00673 27.1166L7 27V24C7 21.3873 8.12091 18.9472 10.0368 17.2512C10.4503 16.8852 11.0823 16.9237 11.4484 17.3372ZM20 24C20.5523 24 21 24.4477 21 25C21 25.5128 20.614 25.9355 20.1166 25.9933L20 26H12C11.4477 26 11 25.5523 11 25C11 24.4872 11.3861 24.0645 11.8834 24.0067L12 24H20ZM18 20C18.5523 20 19 20.4477 19 21C19 21.5128 18.614 21.9355 18.1166 21.9933L18 22H14C13.4477 22 13 21.5523 13 21C13 20.4872 13.3861 20.0645 13.8834 20.0067L14 20H18ZM24 4C24.5128 4 24.9355 4.38604 24.9933 4.88338L25 5V8C25 10.6188 23.8739 13.0578 21.9472 14.7552C21.5328 15.1203 20.9009 15.0803 20.5358 14.6659C20.1707 14.2515 20.2107 13.6196 20.6251 13.2545C22.0538 11.9958 22.9153 10.2175 22.9941 8.29016L23 8V5C23 4.44772 23.4477 4 24 4ZM18 10C18.5523 10 19 10.4477 19 11C19 11.5128 18.614 11.9355 18.1166 11.9933L18 12H14C13.4477 12 13 11.5523 13 11C13 10.4872 13.3861 10.0645 13.8834 10.0067L14 10H18ZM20 6.00001C20.5523 6.00001 21 6.44773 21 7.00001C21 7.51285 20.614 7.93552 20.1166 7.99328L20 8.00001H12C11.4477 8.00001 11 7.5523 11 7.00001C11 6.48718 11.3861 6.06451 11.8834 6.00674L12 6.00001H20Z" fill="#1950EC"/>
</svg>
