<svg width="32" height="32" viewBox="0 0 32 32" fill="none" xmlns="http://www.w3.org/2000/svg">
<path d="M15.998 0C11.649 0 11.107 0.021 9.405 0.093C7.696 0.177 6.54 0.442 5.52 0.838C4.45246 1.24102 3.48566 1.87202 2.687 2.687C1.86974 3.4838 1.2384 4.45113 0.838 5.52C0.442 6.54 0.177 7.696 0.093 9.405C0.016 11.108 0 11.649 0 15.998C0 20.347 0.021 20.889 0.093 22.591C0.177 24.295 0.442 25.456 0.838 26.476C1.24102 27.5435 1.87202 28.5103 2.687 29.309C3.4838 30.1263 4.45113 30.7576 5.52 31.158C6.54 31.549 7.701 31.819 9.405 31.903C11.108 31.98 11.649 31.996 15.998 31.996C20.347 31.996 20.889 31.975 22.591 31.903C24.295 31.819 25.456 31.548 26.476 31.158C27.5435 30.755 28.5103 30.124 29.309 29.309C30.1273 28.5131 30.7588 27.5455 31.158 26.476C31.549 25.456 31.819 24.295 31.903 22.591C31.98 20.888 31.996 20.347 31.996 15.998C31.996 11.649 31.975 11.107 31.903 9.405C31.819 7.701 31.548 6.534 31.158 5.52C30.755 4.45246 30.124 3.48566 29.309 2.687C28.5131 1.86869 27.5455 1.23718 26.476 0.838C25.456 0.442 24.295 0.177 22.591 0.093C20.888 0.016 20.347 0 15.998 0ZM15.998 2.88C20.269 2.88 20.779 2.901 22.467 2.973C24.024 3.046 24.872 3.306 25.435 3.526C26.131 3.78292 26.761 4.19185 27.279 4.723C27.8092 5.23883 28.2166 5.86735 28.471 6.562C28.691 7.125 28.951 7.973 29.024 9.53C29.096 11.218 29.117 11.729 29.117 15.999C29.117 20.269 29.096 20.78 29.018 22.468C28.934 24.025 28.674 24.873 28.455 25.436C28.152 26.187 27.814 26.712 27.256 27.28C26.7362 27.8078 26.1067 28.2148 25.412 28.472C24.856 28.692 23.996 28.952 22.433 29.025C20.736 29.097 20.236 29.118 15.954 29.118C11.672 29.118 11.173 29.097 9.474 29.019C7.917 28.935 7.058 28.675 6.495 28.456C5.735 28.153 5.214 27.815 4.656 27.257C4.093 26.694 3.735 26.158 3.459 25.413C3.235 24.857 2.979 23.997 2.896 22.434C2.839 20.757 2.812 20.237 2.812 15.975C2.812 11.715 2.839 11.194 2.896 9.496C2.979 7.933 3.235 7.075 3.459 6.517C3.735 5.756 4.094 5.236 4.656 4.673C5.213 4.116 5.735 3.756 6.495 3.474C7.058 3.255 7.896 2.995 9.459 2.917C11.156 2.856 11.656 2.834 15.932 2.834L15.998 2.88ZM15.998 7.787C14.9193 7.78661 13.8512 7.99877 12.8546 8.41137C11.8579 8.82398 10.9524 9.42893 10.1897 10.1917C9.42693 10.9544 8.82198 11.8599 8.40937 12.8566C7.99677 13.8532 7.78461 14.9213 7.785 16C7.78461 17.0787 7.99677 18.1468 8.40937 19.1434C8.82198 20.1401 9.42693 21.0456 10.1897 21.8083C10.9524 22.5711 11.8579 23.176 12.8546 23.5886C13.8512 24.0012 14.9193 24.2134 15.998 24.213C17.0767 24.2134 18.1448 24.0012 19.1414 23.5886C20.1381 23.176 21.0436 22.5711 21.8063 21.8083C22.5691 21.0456 23.174 20.1401 23.5866 19.1434C23.9992 18.1468 24.2114 17.0787 24.211 16C24.2114 14.9213 23.9992 13.8532 23.5866 12.8566C23.174 11.8599 22.5691 10.9544 21.8063 10.1917C21.0436 9.42893 20.1381 8.82398 19.1414 8.41137C18.1448 7.99877 17.0767 7.78661 15.998 7.787ZM15.998 21.333C13.05 21.333 10.665 18.948 10.665 16C10.665 13.052 13.05 10.667 15.998 10.667C18.946 10.667 21.331 13.052 21.331 16C21.331 18.948 18.946 21.333 15.998 21.333ZM26.462 7.459C26.4615 7.96866 26.2586 8.45727 25.8981 8.81747C25.5375 9.17767 25.0487 9.38 24.539 9.38C24.287 9.38 24.0375 9.33036 23.8046 9.23392C23.5718 9.13749 23.3603 8.99613 23.1821 8.81794C23.0039 8.63974 22.8625 8.42819 22.7661 8.19537C22.6696 7.96255 22.62 7.71301 22.62 7.461C22.62 7.20899 22.6696 6.95945 22.7661 6.72663C22.8625 6.49381 23.0039 6.28226 23.1821 6.10406C23.3603 5.92587 23.5718 5.78451 23.8046 5.68808C24.0375 5.59164 24.287 5.542 24.539 5.542C25.596 5.542 26.462 6.402 26.462 7.459Z" fill="#CCCCCC" fill-opacity="0.5"/>
</svg>
