<svg width="33" height="32" viewBox="0 0 33 32" fill="none" xmlns="http://www.w3.org/2000/svg">
<path d="M7.49126 32V10.4097H0.417357V32H7.49126ZM3.95522 7.46009C6.42202 7.46009 7.95748 5.8022 7.95748 3.7304C7.91152 1.61187 6.42211 0 4.00203 0C1.58234 0 0 1.6119 0 3.7304C0 5.8023 1.53508 7.46009 3.90904 7.46009H3.955H3.95522ZM11.4066 32H18.4805V19.9429C18.4805 19.2976 18.5265 18.653 18.7133 18.1917C19.2247 16.9025 20.3886 15.5672 22.3427 15.5672C24.9025 15.5672 25.9265 17.5471 25.9265 20.4495V31.9998H33V19.6201C33 12.9884 29.5101 9.90277 24.8559 9.90277C21.0398 9.90277 19.3643 12.0667 18.4335 13.5405H18.4807V10.4092H11.4068C11.4996 12.4351 11.4068 31.9996 11.4068 31.9996L11.4066 32Z" fill="#CCCCCC" fill-opacity="0.5"/>
</svg>
