<svg width="35" height="33" viewBox="0 0 35 33" fill="none" xmlns="http://www.w3.org/2000/svg">
<path d="M31.8334 5.75001H15.6128L12.8537 1.95168C12.6313 1.64734 12.34 1.39995 12.0037 1.22972C11.6674 1.05949 11.2956 0.971259 10.9187 0.972237H3.16672C2.53315 0.972237 1.92552 1.22392 1.47752 1.67193C1.02952 2.11993 0.777832 2.72755 0.777832 3.36113V29.6389C0.777832 30.2725 1.02952 30.8801 1.47752 31.3281C1.92552 31.7761 2.53315 32.0278 3.16672 32.0278H31.8334C32.467 32.0278 33.0746 31.7761 33.5226 31.3281C33.9706 30.8801 34.2223 30.2725 34.2223 29.6389V8.1389C34.2223 7.50533 33.9706 6.89771 33.5226 6.4497C33.0746 6.0017 32.467 5.75001 31.8334 5.75001ZM31.8334 29.6389H3.16672V10.5278H11.8981C12.5317 10.5278 13.1393 10.2761 13.5873 9.8281C14.0353 9.3801 14.287 8.77248 14.287 8.1389H3.16672V3.36113H10.9187L14.0362 7.64918C14.1474 7.80135 14.293 7.92505 14.4611 8.01016C14.6293 8.09528 14.8152 8.13939 15.0037 8.1389H31.8334V29.6389Z" fill="#B1E023"/>
</svg>
