<svg width="19" height="14" viewBox="0 0 19 14" fill="none" xmlns="http://www.w3.org/2000/svg">
<path d="M17.1111 0H1.55556C0.696759 0 0 0.671875 0 1.5V12.5C0 13.3281 0.696759 14 1.55556 14H17.1111C17.9699 14 18.6667 13.3281 18.6667 12.5V1.5C18.6667 0.671875 17.9699 0 17.1111 0ZM5.7037 3C6.84768 3 7.77778 3.89687 7.77778 5C7.77778 6.10313 6.84768 7 5.7037 7C4.55972 7 3.62963 6.10313 3.62963 5C3.62963 3.89687 4.55972 3 5.7037 3ZM9.33333 10.4C9.33333 10.7312 9.00926 11 8.60741 11H2.8C2.39815 11 2.07407 10.7312 2.07407 10.4V9.8C2.07407 8.80625 3.04954 8 4.25185 8H4.41389C4.8125 8.15938 5.24676 8.25 5.7037 8.25C6.16065 8.25 6.59815 8.15938 6.99352 8H7.15556C8.35787 8 9.33333 8.80625 9.33333 9.8V10.4ZM16.5926 8.75C16.5926 8.8875 16.4759 9 16.3333 9H11.6667C11.5241 9 11.4074 8.8875 11.4074 8.75V8.25C11.4074 8.1125 11.5241 8 11.6667 8H16.3333C16.4759 8 16.5926 8.1125 16.5926 8.25V8.75ZM16.5926 6.75C16.5926 6.8875 16.4759 7 16.3333 7H11.6667C11.5241 7 11.4074 6.8875 11.4074 6.75V6.25C11.4074 6.1125 11.5241 6 11.6667 6H16.3333C16.4759 6 16.5926 6.1125 16.5926 6.25V6.75ZM16.5926 4.75C16.5926 4.8875 16.4759 5 16.3333 5H11.6667C11.5241 5 11.4074 4.8875 11.4074 4.75V4.25C11.4074 4.1125 11.5241 4 11.6667 4H16.3333C16.4759 4 16.5926 4.1125 16.5926 4.25V4.75Z" fill="black"/>
</svg>
