<svg width="54" height="54" viewBox="0 0 54 54" fill="none" xmlns="http://www.w3.org/2000/svg">
<path d="M5.0625 8.4375V38.8125C5.0625 42.5419 8.08312 45.5625 11.8125 45.5625H42.1875C45.9169 45.5625 48.9375 42.5419 48.9375 38.8125V20.25H38.8125V8.4375H5.0625ZM8.4375 11.8125H35.4375V38.8125C35.4375 40.0444 35.8088 41.1919 36.3876 42.1875H11.8125C9.80437 42.1875 8.4375 40.8206 8.4375 38.8125V11.8125ZM11.8125 15.1875V23.625H32.0625V15.1875H11.8125ZM15.1875 18.5625H28.6875V20.25H15.1875V18.5625ZM38.8125 23.625H45.5625V38.8125C45.5625 40.8206 44.1956 42.1875 42.1875 42.1875C40.1794 42.1875 38.8125 40.8206 38.8125 38.8125V23.625ZM11.8125 25.3125V28.6875H20.25V25.3125H11.8125ZM23.625 25.3125V28.6875H32.0625V25.3125H23.625ZM11.8125 30.375V33.75H20.25V30.375H11.8125ZM23.625 30.375V33.75H32.0625V30.375H23.625ZM11.8125 35.4375V38.8125H20.25V35.4375H11.8125ZM23.625 35.4375V38.8125H32.0625V35.4375H23.625Z" fill="#B1E023"/>
</svg>
