<svg width="49" height="49" viewBox="0 0 49 49" fill="none" xmlns="http://www.w3.org/2000/svg">
<path d="M41.3438 6.125H1.53125V36.75H41.3438V6.125ZM38.2812 33.6875H4.59375V9.1875H38.2812V33.6875Z" fill="#B1E023"/>
<path d="M44.4062 13.7812V39.8125H9.1875V42.875H47.4688V13.7812H44.4062Z" fill="#B1E023"/>
<path d="M21.4375 28.9464C25.2369 28.9464 28.3281 25.5837 28.3281 21.4503C28.3281 17.317 25.2369 13.9543 21.4375 13.9543C17.6381 13.9543 14.5469 17.3169 14.5469 21.4503C14.5469 25.5838 17.6381 28.9464 21.4375 28.9464ZM21.4375 17.0168C23.5483 17.0168 25.2656 19.0057 25.2656 21.4503C25.2656 23.895 23.5483 25.8839 21.4375 25.8839C19.3267 25.8839 17.6094 23.895 17.6094 21.4503C17.6094 19.0057 19.3267 17.0168 21.4375 17.0168Z" fill="#B1E023"/>
<path d="M7.65625 13.0156H10.7188V29.8594H7.65625V13.0156Z" fill="#B1E023"/>
<path d="M32.1562 13.0156H35.2188V29.8594H32.1562V13.0156Z" fill="#B1E023"/>
</svg>
