<svg width="210" height="105" viewBox="0 0 210 105" fill="none" xmlns="http://www.w3.org/2000/svg">
<mask id="mask0" mask-type="alpha" maskUnits="userSpaceOnUse" x="7" y="5" width="196" height="91">
<path d="M197.942 5.04785H12.0571C9.28249 5.04785 7.0332 7.30795 7.0332 10.0959V90.8652C7.0332 93.6531 9.28249 95.9132 12.0571 95.9132H197.942C200.717 95.9132 202.966 93.6531 202.966 90.8652V10.0959C202.966 7.30795 200.717 5.04785 197.942 5.04785Z" fill="white"/>
</mask>
<g mask="url(#mask0)">
<path d="M197.439 5.55273H12.5591C9.78444 5.55273 7.53516 7.81284 7.53516 10.6008V90.3604C7.53516 93.1484 9.78444 95.4085 12.5591 95.4085H197.439C200.214 95.4085 202.463 93.1484 202.463 90.3604V10.6008C202.463 7.81284 200.214 5.55273 197.439 5.55273Z" fill="#B1E023"/>
<g filter="url(#filter0_d)">
<path d="M41.3398 33.0068H167.871C169.404 33.0068 170.647 34.2556 170.647 35.7961V66.1643C170.647 67.7048 169.404 68.9536 167.871 68.9536H41.3398C39.684 68.9536 38.3418 67.6049 38.3418 65.9412V36.0192C38.3418 34.3555 39.684 33.0068 41.3398 33.0068Z" fill="black"/>
</g>
<path fill-rule="evenodd" clip-rule="evenodd" d="M167.871 68.5665H41.3399C40.6186 68.5665 39.9654 68.2727 39.4927 67.7976C39.0199 67.3226 38.7275 66.6664 38.7275 65.9415V36.0195C38.7275 35.2946 39.0199 34.6384 39.4927 34.1634C39.9654 33.6883 40.6186 33.3945 41.3399 33.3945H167.871C168.531 33.3945 169.129 33.6634 169.562 34.098C169.994 34.5327 170.262 35.1331 170.262 35.7964V66.1646C170.262 66.8279 169.994 67.4283 169.562 67.863C169.129 68.2976 168.531 68.5665 167.871 68.5665Z" fill="white"/>
<path d="M59.518 57.7768L57.0242 55.6288L57.0353 55.6326C57.0394 55.6346 57.039 55.6358 57.0325 55.6364L50.1468 55.6357L50.0827 55.6312C49.9497 55.6185 49.834 55.5838 49.7166 55.4914C49.5739 55.379 49.4994 55.2295 49.4696 55.0652C49.4559 54.9898 49.4527 54.9272 49.4521 54.8217L49.4528 44.7437L49.4563 44.6662C49.4573 44.6542 49.4584 44.6421 49.4598 44.629C49.4771 44.4673 49.5267 44.3239 49.651 44.1946C49.7745 44.0661 49.9103 44.0153 50.0638 43.9975L50.134 43.9916C50.1461 43.991 50.1589 43.9905 50.1733 43.9902L59.8519 43.9905C59.8622 43.9908 59.8717 43.9911 59.8807 43.9916L59.9511 43.9976C60.1052 44.0156 60.2416 44.0671 60.3651 44.1966C60.4885 44.326 60.5375 44.4689 60.5546 44.6304L60.5603 44.7042C60.5609 44.7169 60.5613 44.7303 60.5616 44.7455L60.5618 57.2706L60.5587 57.3484L60.5513 57.4163C60.5081 57.728 60.3088 58.0162 59.8966 57.9632C59.7327 57.9421 59.6592 57.894 59.518 57.7768ZM59.4513 45.1543H50.5631V54.4725L57.0435 54.473C57.2033 54.4752 57.2777 54.4862 57.3996 54.5318L57.4807 54.5652C57.5812 54.6117 57.6619 54.6727 57.8484 54.8301L58.3433 55.2524L59.4513 56.2076V45.1543Z" fill="#373838"/>
<path d="M87.8303 56.9705C91.177 56.9705 93.8901 54.2882 93.8901 50.9794C93.8901 47.6706 91.177 44.9883 87.8303 44.9883C84.4836 44.9883 81.7705 47.6706 81.7705 50.9794C81.7705 54.2882 84.4836 56.9705 87.8303 56.9705Z" fill="#B1E023"/>
<path d="M109.04 56.6621C112.217 56.6621 114.793 54.1179 114.793 50.9795C114.793 47.8411 112.217 45.2969 109.04 45.2969C105.863 45.2969 103.287 47.8411 103.287 50.9795C103.287 54.1179 105.863 56.6621 109.04 56.6621Z" fill="#7EC5FF"/>
<path d="M130.249 56.6621C133.426 56.6621 136.002 54.1179 136.002 50.9795C136.002 47.8411 133.426 45.2969 130.249 45.2969C127.072 45.2969 124.496 47.8411 124.496 50.9795C124.496 54.1179 127.072 56.6621 130.249 56.6621Z" fill="#4ADAA0"/>
<path d="M151.458 56.6621C154.635 56.6621 157.211 54.1179 157.211 50.9795C157.211 47.8411 154.635 45.2969 151.458 45.2969C148.281 45.2969 145.705 47.8411 145.705 50.9795C145.705 54.1179 148.281 56.6621 151.458 56.6621Z" fill="#FEBF3C"/>
<path d="M52.6665 50.4803H56.8535C57.0846 50.4803 57.272 50.2543 57.272 49.9755C57.272 49.6967 57.0846 49.4707 56.8535 49.4707H52.6665C52.4354 49.4707 52.248 49.6967 52.248 49.9755C52.248 50.2543 52.4354 50.4803 52.6665 50.4803Z" fill="#373838"/>
<path d="M52.6665 52.4999H56.8535C57.0846 52.4999 57.272 52.2738 57.272 51.995C57.272 51.7162 57.0846 51.4902 56.8535 51.4902H52.6665C52.4354 51.4902 52.248 51.7162 52.248 51.995C52.248 52.2738 52.4354 52.4999 52.6665 52.4999Z" fill="#373838"/>
<path d="M52.6665 48.4618H56.8535C57.0846 48.4618 57.272 48.2358 57.272 47.957C57.272 47.6782 57.0846 47.4521 56.8535 47.4521H52.6665C52.4354 47.4521 52.248 47.6782 52.248 47.957C52.248 48.2358 52.4354 48.4618 52.6665 48.4618Z" fill="#373838"/>
</g>
<defs>
<filter id="filter0_d" x="33.3418" y="29.0068" width="142.305" height="45.9467" filterUnits="userSpaceOnUse" color-interpolation-filters="sRGB">
<feFlood flood-opacity="0" result="BackgroundImageFix"/>
<feColorMatrix in="SourceAlpha" type="matrix" values="0 0 0 0 0 0 0 0 0 0 0 0 0 0 0 0 0 0 127 0"/>
<feOffset dy="1"/>
<feGaussianBlur stdDeviation="2.5"/>
<feColorMatrix type="matrix" values="0 0 0 0 0.400306 0 0 0 0 0.211395 0 0 0 0 0.106598 0 0 0 0.178731 0"/>
<feBlend mode="normal" in2="BackgroundImageFix" result="effect1_dropShadow"/>
<feBlend mode="normal" in="SourceGraphic" in2="effect1_dropShadow" result="shape"/>
</filter>
</defs>
</svg>
