<svg width="17" height="16" viewBox="0 0 17 16" fill="none" xmlns="http://www.w3.org/2000/svg">
<path fill-rule="evenodd" clip-rule="evenodd" d="M7.38898 0C8.62219 2.79623e-06 9.83035 0.348199 10.8744 1.00452C11.9185 1.66084 12.756 2.59861 13.2906 3.70991C13.8253 4.82121 14.0353 6.06088 13.8965 7.28626C13.7576 8.51164 13.2757 9.67293 12.506 10.6365L16.6356 14.7668C16.7681 14.904 16.8415 15.0878 16.8398 15.2786C16.8382 15.4694 16.7616 15.6519 16.6267 15.7869C16.4918 15.9218 16.3093 15.9983 16.1185 16C15.9277 16.0016 15.7439 15.9283 15.6067 15.7957L11.4763 11.6662C10.6589 12.3191 9.69703 12.7667 8.67111 12.9715C7.6452 13.1763 6.58514 13.1324 5.5797 12.8434C4.57425 12.5543 3.65267 12.0287 2.89211 11.3103C2.13155 10.592 1.55414 9.70192 1.20822 8.71461C0.862303 7.72729 0.757943 6.67147 0.903878 5.63554C1.04981 4.59961 1.44179 3.61371 2.04701 2.76038C2.65222 1.90706 3.45306 1.21113 4.38247 0.730875C5.31188 0.250615 6.34281 -2.9696e-06 7.38898 0ZM7.38898 1.45536C6.03803 1.45536 4.74241 1.99202 3.78715 2.94728C2.83188 3.90255 2.29522 5.19816 2.29522 6.54911C2.29522 7.90006 2.83188 9.19568 3.78715 10.1509C4.74241 11.1062 6.03803 11.6429 7.38898 11.6429C8.73992 11.6429 10.0355 11.1062 10.9908 10.1509C11.9461 9.19568 12.4827 7.90006 12.4827 6.54911C12.4827 5.19816 11.9461 3.90255 10.9908 2.94728C10.0355 1.99202 8.73992 1.45536 7.38898 1.45536Z" fill="#191919"/>
</svg>
