<svg width="38" height="38" viewBox="0 0 38 38" fill="none" xmlns="http://www.w3.org/2000/svg">
<path d="M32.119 5.42857C32.8913 5.42857 33.6561 5.58069 34.3696 5.87623C35.0831 6.17178 35.7314 6.60497 36.2775 7.15106C36.8236 7.69716 37.2568 8.34547 37.5523 9.05898C37.8479 9.77249 38 10.5372 38 11.3095V32.119C38 32.8913 37.8479 33.6561 37.5523 34.3696C37.2568 35.0831 36.8236 35.7314 36.2775 36.2775C35.7314 36.8236 35.0831 37.2568 34.3696 37.5523C33.6561 37.8479 32.8913 38 32.119 38H11.3095C10.5372 38 9.77249 37.8479 9.05898 37.5523C8.34547 37.2568 7.69716 36.8236 7.15106 36.2775C6.60497 35.7314 6.17178 35.0831 5.87623 34.3696C5.58069 33.6561 5.42857 32.8913 5.42857 32.119V20.8131C6.28629 21.1714 7.19648 21.4284 8.14286 21.5768V32.119C8.14286 32.4954 8.208 32.8573 8.32924 33.1939L18.8661 22.8778C19.5884 22.1707 20.5479 21.7576 21.558 21.7188C22.5681 21.68 23.5564 22.0183 24.3309 22.6679L24.5625 22.8778L35.0975 33.1957C35.2188 32.8591 35.2857 32.4972 35.2857 32.119V11.3095C35.2857 10.4697 34.9521 9.66422 34.3582 9.07035C33.7644 8.47649 32.9589 8.14286 32.119 8.14286H21.5768C21.4327 7.21059 21.1763 6.29919 20.8131 5.42857H32.119ZM20.9163 24.6891L20.7643 24.8158L10.2564 35.1066C10.5857 35.2224 10.9404 35.2857 11.3095 35.2857H32.119C32.4864 35.2857 32.841 35.2224 33.1686 35.1066L22.6643 24.8176C22.4351 24.593 22.1338 24.4569 21.8138 24.4334C21.4938 24.4098 21.1758 24.5005 20.9163 24.6891ZM27.5989 11.7619C28.6796 11.7619 29.7161 12.1912 30.4804 12.9555C31.2446 13.7197 31.6739 14.7562 31.6739 15.837C31.6739 16.9177 31.2446 17.9542 30.4804 18.7184C29.7161 19.4827 28.6796 19.912 27.5989 19.912C26.5181 19.912 25.4816 19.4827 24.7174 18.7184C23.9531 17.9542 23.5238 16.9177 23.5238 15.837C23.5238 14.7562 23.9531 13.7197 24.7174 12.9555C25.4816 12.1912 26.5181 11.7619 27.5989 11.7619ZM9.95238 0C11.2593 -1.94753e-08 12.5535 0.257426 13.761 0.75758C14.9685 1.25773 16.0656 1.99082 16.9898 2.91498C17.9139 3.83915 18.647 4.93629 19.1472 6.14377C19.6473 7.35125 19.9048 8.64542 19.9048 9.95238C19.9048 11.2593 19.6473 12.5535 19.1472 13.761C18.647 14.9685 17.9139 16.0656 16.9898 16.9898C16.0656 17.9139 14.9685 18.647 13.761 19.1472C12.5535 19.6473 11.2593 19.9048 9.95238 19.9048C7.31285 19.9048 4.78142 18.8562 2.91498 16.9898C1.04855 15.1233 0 12.5919 0 9.95238C0 7.31285 1.04855 4.78142 2.91498 2.91499C4.78142 1.04855 7.31285 3.93321e-08 9.95238 0ZM27.5989 14.4762C27.4202 14.4762 27.2432 14.5114 27.0781 14.5798C26.913 14.6482 26.763 14.7484 26.6367 14.8747C26.5103 15.0011 26.4101 15.1511 26.3417 15.3162C26.2733 15.4813 26.2381 15.6583 26.2381 15.837C26.2381 16.0156 26.2733 16.1926 26.3417 16.3577C26.4101 16.5228 26.5103 16.6728 26.6367 16.7992C26.763 16.9255 26.913 17.0257 27.0781 17.0941C27.2432 17.1625 27.4202 17.1977 27.5989 17.1977C27.9598 17.1977 28.3059 17.0543 28.5611 16.7992C28.8163 16.544 28.9596 16.1978 28.9596 15.837C28.9596 15.4761 28.8163 15.1299 28.5611 14.8747C28.3059 14.6196 27.9598 14.4762 27.5989 14.4762ZM9.95238 3.61905L9.78952 3.63171C9.60874 3.66474 9.44231 3.75204 9.31236 3.88198C9.18242 4.01193 9.09512 4.17836 9.06209 4.35914L9.04762 4.52381V9.04762H4.52019L4.35733 9.06209C4.17655 9.09512 4.01012 9.18242 3.88017 9.31236C3.75023 9.44231 3.66293 9.60874 3.6299 9.78952L3.61543 9.95238L3.6299 10.1152C3.66293 10.296 3.75023 10.4625 3.88017 10.5924C4.01012 10.7223 4.17655 10.8096 4.35733 10.8427L4.52019 10.8571H9.04762V15.3864L9.06209 15.5492C9.09512 15.73 9.18242 15.8965 9.31236 16.0264C9.44231 16.1563 9.60874 16.2436 9.78952 16.2767L9.95238 16.293L10.1152 16.2767C10.296 16.2436 10.4625 16.1563 10.5924 16.0264C10.7223 15.8965 10.8096 15.73 10.8427 15.5492L10.8571 15.3864V10.8571H15.39L15.5529 10.8427C15.7336 10.8096 15.9001 10.7223 16.03 10.5924C16.16 10.4625 16.2473 10.296 16.2803 10.1152L16.2948 9.95238L16.2803 9.78952C16.2471 9.6085 16.1596 9.44188 16.0293 9.31191C15.899 9.18194 15.7322 9.09479 15.551 9.06209L15.3882 9.04762H10.8571V4.52381L10.8427 4.36095C10.81 4.17984 10.7228 4.01301 10.5929 3.88271C10.4629 3.75242 10.2963 3.66486 10.1152 3.63171L9.95238 3.61905Z" fill="#CED7DA"/>
</svg>
