<svg width="40" height="32" viewBox="0 0 40 32" fill="none" xmlns="http://www.w3.org/2000/svg">
<path d="M40 3.8012C38.529 4.42605 36.9283 4.87576 35.2794 5.0509C36.9913 4.04942 38.2732 2.46723 38.8847 0.601203C37.2784 1.54222 35.5186 2.20207 33.6834 2.5515C32.9165 1.74405 31.9888 1.1008 30.9583 0.66183C29.9278 0.22286 28.8166 -0.00242264 27.6938 1.96469e-05C23.1511 1.96469e-05 19.4977 3.62605 19.4977 8.07575C19.4977 8.70061 19.5746 9.32546 19.6996 9.92664C12.8975 9.57635 6.83091 6.37635 2.79774 1.47694C2.06285 2.71299 1.67775 4.12038 1.68249 5.55268C1.68249 8.35504 3.12943 10.826 5.3359 12.2793C4.03559 12.2289 2.76574 11.8769 1.62961 11.2521V11.3515C1.62961 15.2757 4.44658 18.5278 8.20094 19.2757C7.49602 19.4561 6.77085 19.5483 6.04254 19.5503C5.50895 19.5503 5.00421 19.4982 4.49465 19.4272C5.53299 22.6272 8.55666 24.9515 12.1572 25.0272C9.34022 27.2 5.8118 28.4781 1.98053 28.4781C1.29311 28.4781 0.658575 28.4544 0 28.3787C3.63418 30.6746 7.94616 32 12.5898 32C27.6649 32 35.914 19.7018 35.914 9.02723C35.914 8.67694 35.914 8.32664 35.8899 7.97635C37.4859 6.82605 38.8848 5.4012 40 3.8012Z" fill="#CCCCCC" fill-opacity="0.5"/>
</svg>
