<svg width="210" height="105" viewBox="0 0 210 105" fill="none" xmlns="http://www.w3.org/2000/svg">
<mask id="mask0" mask-type="alpha" maskUnits="userSpaceOnUse" x="7" y="5" width="196" height="91">
<path d="M197.44 5.04785H12.5595C9.50742 5.04785 7.0332 7.53396 7.0332 10.6007V90.3604C7.0332 93.4271 9.50742 95.9132 12.5595 95.9132H197.44C200.492 95.9132 202.966 93.4271 202.966 90.3604V10.6007C202.966 7.53396 200.492 5.04785 197.44 5.04785Z" fill="white"/>
</mask>
<g mask="url(#mask0)">
<path d="M196.937 5.55273H13.0615C10.0094 5.55273 7.53516 8.03885 7.53516 11.1056V89.8556C7.53516 92.9224 10.0094 95.4085 13.0615 95.4085H196.937C199.989 95.4085 202.463 92.9224 202.463 89.8556V11.1056C202.463 8.03885 199.989 5.55273 196.937 5.55273Z" fill="#B1E023" stroke="#E3DEDC" stroke-opacity="0.287779"/>
<mask id="mask1" mask-type="alpha" maskUnits="userSpaceOnUse" x="25" y="24" width="161" height="73">
<path d="M184.076 24.2305H26.9278C25.9289 24.2305 25.1191 25.0441 25.1191 26.0478V95.1055C25.1191 96.1091 25.9289 96.9228 26.9278 96.9228H184.076C185.075 96.9228 185.885 96.1091 185.885 95.1055V26.0478C185.885 25.0441 185.075 24.2305 184.076 24.2305Z" fill="white"/>
</mask>
<g mask="url(#mask1)">
<g filter="url(#filter0_d)">
<path d="M184.076 24.2305H26.9278C25.9289 24.2305 25.1191 25.0441 25.1191 26.0478V95.1055C25.1191 96.1091 25.9289 96.9228 26.9278 96.9228H184.076C185.075 96.9228 185.885 96.1091 185.885 95.1055V26.0478C185.885 25.0441 185.075 24.2305 184.076 24.2305Z" fill="black"/>
</g>
<path d="M184.076 24.2305H26.9278C25.9289 24.2305 25.1191 25.0441 25.1191 26.0478V95.1055C25.1191 96.1091 25.9289 96.9228 26.9278 96.9228H184.076C185.075 96.9228 185.885 96.1091 185.885 95.1055V26.0478C185.885 25.0441 185.075 24.2305 184.076 24.2305Z" fill="white"/>
<path d="M114.277 46.4424H96.7274C96.0242 46.4424 95.4541 47.0152 95.4541 47.7218V72.4226C95.4541 73.1292 96.0242 73.702 96.7274 73.702H114.277C114.98 73.702 115.55 73.1292 115.55 72.4226V47.7218C115.55 47.0152 114.98 46.4424 114.277 46.4424Z" fill="#075F49"/>
<path opacity="0.262416" d="M114.545 87.8359H96.4589C95.904 87.8359 95.4541 88.288 95.4541 88.8456V114.086C95.4541 114.644 95.904 115.096 96.4589 115.096H114.545C115.1 115.096 115.55 114.644 115.55 114.086V88.8456C115.55 88.288 115.1 87.8359 114.545 87.8359Z" fill="#B1E023"/>
<path opacity="0.690988" d="M166.525 46.4424H147.972C147.268 46.4424 146.698 47.0152 146.698 47.7218V72.4226C146.698 73.1292 147.268 73.702 147.972 73.702H166.525C167.229 73.702 167.799 73.1292 167.799 72.4226V47.7218C167.799 47.0152 167.229 46.4424 166.525 46.4424Z" fill="#B1E023" fill-opacity="0.1"/>
<path opacity="0.262416" d="M166.794 87.8359H147.703C147.148 87.8359 146.698 88.288 146.698 88.8456V114.086C146.698 114.644 147.148 115.096 147.703 115.096H166.794C167.349 115.096 167.799 114.644 167.799 114.086V88.8456C167.799 88.288 167.349 87.8359 166.794 87.8359Z" fill="#B1E023"/>
<path opacity="0.811523" d="M89.1573 46.4424H70.6033C69.9001 46.4424 69.3301 47.0152 69.3301 47.7218V72.4226C69.3301 73.1292 69.9001 73.702 70.6033 73.702H89.1573C89.8605 73.702 90.4306 73.1292 90.4306 72.4226V47.7218C90.4306 47.0152 89.8605 46.4424 89.1573 46.4424Z" fill="#B1E023"/>
<path opacity="0.262416" d="M89.4258 87.8359H70.3349C69.7799 87.8359 69.3301 88.288 69.3301 88.8456V114.086C69.3301 114.644 69.7799 115.096 70.3349 115.096H89.4258C89.9807 115.096 90.4306 114.644 90.4306 114.086V88.8456C90.4306 88.288 89.9807 87.8359 89.4258 87.8359Z" fill="#B1E023"/>
<path opacity="0.811523" d="M140.4 46.4424H121.847C121.143 46.4424 120.573 47.0152 120.573 47.7218V72.4226C120.573 73.1292 121.143 73.702 121.847 73.702H140.4C141.104 73.702 141.674 73.1292 141.674 72.4226V47.7218C141.674 47.0152 141.104 46.4424 140.4 46.4424Z" fill="#B1E023"/>
<path opacity="0.262416" d="M140.669 87.8359H121.578C121.023 87.8359 120.573 88.288 120.573 88.8456V114.086C120.573 114.644 121.023 115.096 121.578 115.096H140.669C141.224 115.096 141.674 114.644 141.674 114.086V88.8456C141.674 88.288 141.224 87.8359 140.669 87.8359Z" fill="#B1E023"/>
<path opacity="0.690988" d="M63.0323 46.4424H44.4783C43.7751 46.4424 43.2051 47.0152 43.2051 47.7218V72.4226C43.2051 73.1292 43.7751 73.702 44.4783 73.702H63.0323C63.7355 73.702 64.3056 73.1292 64.3056 72.4226V47.7218C64.3056 47.0152 63.7355 46.4424 63.0323 46.4424Z" fill="#B1E023" fill-opacity="0.1"/>
<path opacity="0.262416" d="M63.3008 87.8359H44.2099C43.6549 87.8359 43.2051 88.288 43.2051 88.8456V114.086C43.2051 114.644 43.6549 115.096 44.2099 115.096H63.3008C63.8557 115.096 64.3056 114.644 64.3056 114.086V88.8456C64.3056 88.288 63.8557 87.8359 63.3008 87.8359Z" fill="#B1E023"/>
</g>
</g>
<defs>
<filter id="filter0_d" x="17.1191" y="16.2305" width="176.766" height="88.6923" filterUnits="userSpaceOnUse" color-interpolation-filters="sRGB">
<feFlood flood-opacity="0" result="BackgroundImageFix"/>
<feColorMatrix in="SourceAlpha" type="matrix" values="0 0 0 0 0 0 0 0 0 0 0 0 0 0 0 0 0 0 127 0"/>
<feOffset/>
<feGaussianBlur stdDeviation="4"/>
<feColorMatrix type="matrix" values="0 0 0 0 0.400306 0 0 0 0 0.211395 0 0 0 0 0.106598 0 0 0 0.178731 0"/>
<feBlend mode="normal" in2="BackgroundImageFix" result="effect1_dropShadow"/>
<feBlend mode="normal" in="SourceGraphic" in2="effect1_dropShadow" result="shape"/>
</filter>
</defs>
</svg>
