<svg width="25" height="31" viewBox="0 0 25 31" fill="none" xmlns="http://www.w3.org/2000/svg">
<path d="M13.6094 14.3995C13.4608 14.2584 13.2855 14.1478 13.0938 14.074C12.7133 13.919 12.2867 13.919 11.9062 14.074C11.7145 14.1478 11.5392 14.2584 11.3906 14.3995L8.26562 17.4995C7.9714 17.7914 7.80611 18.1872 7.80611 18.6C7.80611 19.0128 7.9714 19.4086 8.26562 19.7005C8.55985 19.9924 8.9589 20.1563 9.375 20.1563C9.7911 20.1563 10.1902 19.9924 10.4844 19.7005L10.9375 19.2355V23.25C10.9375 23.6611 11.1021 24.0553 11.3951 24.346C11.6882 24.6367 12.0856 24.8 12.5 24.8C12.9144 24.8 13.3118 24.6367 13.6049 24.346C13.8979 24.0553 14.0625 23.6611 14.0625 23.25V19.2355L14.5156 19.7005C14.6609 19.8458 14.8337 19.9611 15.0241 20.0398C15.2145 20.1185 15.4187 20.159 15.625 20.159C15.8313 20.159 16.0355 20.1185 16.2259 20.0398C16.4163 19.9611 16.5891 19.8458 16.7344 19.7005C16.8808 19.5564 16.9971 19.385 17.0764 19.1961C17.1557 19.0072 17.1966 18.8046 17.1966 18.6C17.1966 18.3954 17.1557 18.1928 17.0764 18.0039C16.9971 17.815 16.8808 17.6436 16.7344 17.4995L13.6094 14.3995ZM25 10.757C24.9837 10.6146 24.9523 10.4743 24.9062 10.3385V10.199C24.8311 10.0396 24.7309 9.89313 24.6094 9.765L15.2344 0.465C15.1052 0.344435 14.9575 0.245026 14.7969 0.1705H14.6406C14.4887 0.0899047 14.3254 0.0324291 14.1563 0H4.6875C3.4443 0 2.25201 0.489909 1.37294 1.36195C0.49386 2.234 0 3.41674 0 4.65V26.35C0 27.5833 0.49386 28.766 1.37294 29.638C2.25201 30.5101 3.4443 31 4.6875 31H20.3125C21.5557 31 22.748 30.5101 23.6271 29.638C24.5061 28.766 25 27.5833 25 26.35V10.85V10.757ZM15.625 5.2855L19.6719 9.3H17.1875C16.7731 9.3 16.3757 9.1367 16.0826 8.84601C15.7896 8.55533 15.625 8.16109 15.625 7.75V5.2855ZM21.875 26.35C21.875 26.7611 21.7104 27.1553 21.4174 27.446C21.1243 27.7367 20.7269 27.9 20.3125 27.9H4.6875C4.2731 27.9 3.87567 27.7367 3.58265 27.446C3.28962 27.1553 3.125 26.7611 3.125 26.35V4.65C3.125 4.23891 3.28962 3.84467 3.58265 3.55398C3.87567 3.2633 4.2731 3.1 4.6875 3.1H12.5V7.75C12.5 8.98326 12.9939 10.166 13.8729 11.038C14.752 11.9101 15.9443 12.4 17.1875 12.4H21.875V26.35Z" fill="#055844"/>
</svg>
