<svg width="32" height="32" viewBox="0 0 32 32" fill="none" xmlns="http://www.w3.org/2000/svg">
<path d="M24.8081 4.33226C24.8898 4.38788 24.9553 4.44228 25.0372 4.51969L25.1259 4.60568L27.4476 6.92853L27.471 6.95303L27.4923 6.97569L27.5684 7.0627C27.7222 7.24749 27.8275 7.43687 27.8646 7.69859C27.9098 8.01672 27.8232 8.293 27.6616 8.53033C27.606 8.61202 27.5516 8.67748 27.4742 8.75944L27.3882 8.8481L25.1727 11.0655C25.1563 11.0845 25.1391 11.103 25.1211 11.1211L25.0643 11.1708L10.7008 25.5358L10.3473 25.8893C10.0942 26.1424 9.32266 26.552 8.39216 26.9676L8.17477 27.0636L7.49191 27.3519C5.65916 28.1075 4.95812 28.2783 4.33686 27.657C3.76892 27.0891 3.8631 26.4557 4.4619 24.9477L4.55085 24.7263L4.83497 24.0416C5.28082 22.9953 5.74601 22.0702 6.04351 21.7141L6.10463 21.6466L23.1791 4.57281L23.2187 4.5344L23.2534 4.50175L23.3404 4.42558C23.5252 4.27175 23.7145 4.16651 23.9762 4.12931C24.2943 4.08409 24.5707 4.17069 24.8081 4.33226ZM21.9583 16.2985L27.3977 21.75C27.4767 21.8297 27.5128 21.869 27.5622 21.9293C27.7228 22.1254 27.8295 22.3333 27.8458 22.6234C27.8637 22.9415 27.7587 23.1882 27.5904 23.4043C27.5562 23.4481 27.5291 23.4802 27.4921 23.5198L27.3609 23.6537L23.5333 27.4795C23.502 27.5094 23.4762 27.5325 23.4478 27.5559L23.4025 27.5923C23.1868 27.7605 22.9411 27.8657 22.6234 27.8487C22.3324 27.8332 22.1235 27.7264 21.9269 27.5655L21.8442 27.4942C21.8134 27.4659 21.7796 27.433 21.7316 27.3854L19.536 25.1897C19.5321 25.186 19.5283 25.1822 19.5245 25.1784L19.5139 25.165L17.4263 23.0795C17.4185 23.0722 17.4108 23.0647 17.4032 23.0571L17.382 23.0317L16.2963 21.947C15.906 21.5562 15.9065 20.9231 16.2972 20.5328C16.688 20.1425 17.3212 20.1429 17.7115 20.5337L18.1118 20.933L19.5245 19.5215C19.915 19.131 20.5482 19.131 20.9387 19.5215C21.3013 19.8842 21.3272 20.456 21.0164 20.8485L20.9387 20.9357L19.5253 22.3479L20.2324 23.055L21.6458 21.6429C22.0363 21.2523 22.6695 21.2523 23.06 21.6429C23.4226 22.0055 23.4485 22.5773 23.1377 22.9698L23.06 23.0571L21.6466 24.4692L22.6811 25.5051L25.5031 22.6831L21.4674 18.6373L20.5441 17.7127C20.1536 17.3222 20.1536 16.6891 20.5441 16.2985C20.9346 15.908 21.5678 15.908 21.9583 16.2985ZM7.2758 23.5241C7.20284 23.6723 7.11847 23.8477 7.02958 24.0379L6.93943 24.2324L6.6541 24.8752L6.49318 25.2629L6.40644 25.4813L6.34151 25.6538L6.73136 25.5012L7.11892 25.3403C7.61105 25.1301 8.11797 24.8916 8.47064 24.7179L7.2758 23.5241ZM21.5825 8.9972L8.5788 22.0009L9.99301 23.4151L22.9967 10.4114L21.5825 8.9972ZM9.29644 4.07698C9.58741 4.09249 9.79634 4.19927 9.99296 4.36019L10.0756 4.43151C10.0938 4.44825 10.1132 4.46663 10.1359 4.48873L15.7065 10.0582C16.0972 10.4486 16.0974 11.0817 15.7071 11.4724C15.3446 11.8352 14.7727 11.8613 14.3801 11.5506L14.2929 11.473L9.23968 6.41962L6.41762 9.24169L7.50586 10.3257L8.91788 8.91493C9.3084 8.52441 9.94157 8.52441 10.3321 8.91493C10.6947 9.27756 10.7206 9.84941 10.4098 10.2419L10.3321 10.3291L8.92219 11.7378L9.63071 12.4435L11.0392 11.0363C11.4297 10.6457 12.0629 10.6457 12.4534 11.0363C12.816 11.3989 12.8419 11.9707 12.5311 12.3632L12.4534 12.4505L11.047 13.8556L11.4852 14.2928C11.8756 14.6834 11.8755 15.3166 11.4849 15.707C11.0943 16.0975 10.4611 16.0973 10.0707 15.7067L9.02367 14.6638C8.98682 14.636 8.95145 14.6054 8.91788 14.5718C8.8848 14.5387 8.85453 14.5039 8.82705 14.4676L6.88538 12.5294C6.85462 12.5052 6.82495 12.4789 6.79656 12.4505L6.71885 12.3632L4.42858 10.0785C4.40346 10.0511 4.38204 10.0262 4.35726 9.99589C4.19634 9.79927 4.08956 9.59034 4.07405 9.29937C4.05711 8.98167 4.16228 8.73596 4.33049 8.52028C4.36463 8.4765 4.39178 8.44435 4.42886 8.40468L4.56039 8.27049L8.38648 4.4462C8.43356 4.40138 8.4681 4.37183 8.51735 4.33342C8.73303 4.16521 8.97874 4.06004 9.29644 4.07698ZM24.1351 6.44454L22.9967 7.58299L24.4109 8.9972L25.5501 7.85805L24.1351 6.44454Z" fill="#FF7500"/>
</svg>
